<svg xmlns="http://www.w3.org/2000/svg" viewBox="0 0 403.34 80.69">
    <g id="Layer_2" data-name="Layer 2">
        <g id="Brokerway_Logo" data-name="Brokerway Logo">
            <g id="brokerway-logo">
                <g id="brokerway-text">
                    <path id="path81078" d="M22.06,65.59H6.32q-3.41,0-4.88-1.51T0,59.2V20.48c0-2.27.49-3.89,1.48-4.88s2.62-1.51,4.84-1.51H23a38.22,38.22,0,0,1,6.39.46,13.63,13.63,0,0,1,4.85,1.75,12.75,12.75,0,0,1,3.23,2.78,11.77,11.77,0,0,1,2.14,3.69A12,12,0,0,1,40.36,27q0,7.73-7.73,11.31,10.15,3.22,10.16,12.58a14.14,14.14,0,0,1-2.22,7.79,13.24,13.24,0,0,1-6,5.1,21.91,21.91,0,0,1-5.41,1.4,57.05,57.05,0,0,1-7.13.39Zm-.77-22.87H10.43v15H21.64q10.58,0,10.57-7.63,0-3.9-2.74-5.65T21.29,42.72ZM10.43,21.93V35.24H20a19,19,0,0,0,6-.74,5.75,5.75,0,0,0,3.27-2.81,6.27,6.27,0,0,0,.88-3.3q0-3.9-2.78-5.17T18.9,21.93Z"></path>
                    <path id="path81080" d="M57.19,52.63v8A6.28,6.28,0,0,1,55.82,65a4.62,4.62,0,0,1-3.48,1.44A4.38,4.38,0,0,1,48.93,65a6.27,6.27,0,0,1-1.33-4.35V33.94c0-4.31,1.55-6.46,4.67-6.46A3.89,3.89,0,0,1,55.71,29a8.32,8.32,0,0,1,1.16,4.46A17,17,0,0,1,60.38,29a7.37,7.37,0,0,1,4.85-1.51A12.36,12.36,0,0,1,71.1,29c1.89,1,2.84,2.34,2.84,4a3.86,3.86,0,0,1-1.23,2.92A3.71,3.71,0,0,1,70.11,37a12.64,12.64,0,0,1-2.56-.63A11.31,11.31,0,0,0,64,35.73a5.21,5.21,0,0,0-3.44,1.12,7,7,0,0,0-2.07,3.27,22.16,22.16,0,0,0-1,5.2q-.28,3-.28,7.31Z"></path>
                    <path id="path81082" d="M112.58,47a22.72,22.72,0,0,1-1.33,7.91,17.37,17.37,0,0,1-3.87,6.21,17.18,17.18,0,0,1-6,4,21.64,21.64,0,0,1-7.9,1.37,20.62,20.62,0,0,1-7.83-1.41,17.66,17.66,0,0,1-6-4,18.1,18.1,0,0,1-3.86-6.18A23,23,0,0,1,74.4,47a22.86,22.86,0,0,1,1.33-8,17.45,17.45,0,0,1,3.83-6.19,16.81,16.81,0,0,1,6-3.93,21,21,0,0,1,7.83-1.4,21.21,21.21,0,0,1,7.9,1.4,16.94,16.94,0,0,1,9.91,10.19,22.47,22.47,0,0,1,1.33,7.9ZM103,47q0-5.86-2.6-9.13a8.34,8.34,0,0,0-6.92-3.27,8.46,8.46,0,0,0-5,1.48,9.19,9.19,0,0,0-3.31,4.28A17.58,17.58,0,0,0,84,47a17.58,17.58,0,0,0,1.13,6.57,9.68,9.68,0,0,0,3.27,4.32,8.64,8.64,0,0,0,5,1.48,8.34,8.34,0,0,0,6.92-3.27q2.6-3.3,2.6-9.1Z"></path>
                    <path id="path81084" d="M140.51,62.08,132,48.17l-5.2,4.91v7.63A5.87,5.87,0,0,1,125.37,65,4.52,4.52,0,0,1,122,66.47,4.32,4.32,0,0,1,118.55,65a6.53,6.53,0,0,1-1.26-4.35V19.75a8.05,8.05,0,0,1,1.23-4.85A4.1,4.1,0,0,1,122,13.21a4.42,4.42,0,0,1,3.51,1.51,6.68,6.68,0,0,1,1.3,4.47V42.44l10.79-11.31a25.51,25.51,0,0,1,3.05-2.88,4.19,4.19,0,0,1,2.57-.77,4.1,4.1,0,0,1,3,1.15,3.74,3.74,0,0,1,1.2,2.85q0,2.11-3.9,5.62l-5.1,4.67,9.84,15.46c.73,1.15,1.24,2,1.54,2.63a3.47,3.47,0,0,1,.5,1.69A5,5,0,0,1,149,65.17a4.31,4.31,0,0,1-3.26,1.3,3.66,3.66,0,0,1-2.71-1,22.6,22.6,0,0,1-2.56-3.44Z"></path>
                    <path id="path81086" d="M179.77,49.32H161a12.8,12.8,0,0,0,1.3,5.77,9.15,9.15,0,0,0,3.4,3.75,9,9,0,0,0,4.71,1.27,11.71,11.71,0,0,0,3.13-.39,10.93,10.93,0,0,0,2.77-1.26,24,24,0,0,0,2.46-1.86c.75-.66,1.72-1.55,2.92-2.67a3.15,3.15,0,0,1,2.11-.64,3.45,3.45,0,0,1,2.38.81,2.9,2.9,0,0,1,.92,2.29,6.32,6.32,0,0,1-1,3A12.34,12.34,0,0,1,183,62.78a17.49,17.49,0,0,1-5.17,2.63,21.83,21.83,0,0,1-7.13,1.06q-9.24,0-14.37-5.27t-5.12-14.3A23.79,23.79,0,0,1,152.47,39a17.27,17.27,0,0,1,3.69-6.25,15.88,15.88,0,0,1,6-4,21.16,21.16,0,0,1,7.87-1.4,18.43,18.43,0,0,1,9.62,2.38,15.46,15.46,0,0,1,6,6.12,16.12,16.12,0,0,1,2,7.65q0,3.63-2.07,4.71a13.18,13.18,0,0,1-5.83,1ZM161,43.88H178.4Q178,39,175.73,36.54a7.88,7.88,0,0,0-6-2.46,7.71,7.71,0,0,0-5.9,2.49c-1.52,1.64-2.45,4.08-2.77,7.31Z"></path>
                    <path id="path81088" d="M202.58,52.63v8A6.23,6.23,0,0,1,201.21,65a4.59,4.59,0,0,1-3.48,1.44,4.36,4.36,0,0,1-3.4-1.48A6.27,6.27,0,0,1,193,60.64V33.94q0-6.46,4.67-6.46A3.91,3.91,0,0,1,201.11,29a8.32,8.32,0,0,1,1.16,4.46A16.57,16.57,0,0,1,205.78,29a7.35,7.35,0,0,1,4.85-1.51A12.3,12.3,0,0,1,216.49,29c1.9,1,2.85,2.34,2.85,4a3.86,3.86,0,0,1-1.23,2.92,3.72,3.72,0,0,1-2.6,1.12A12.48,12.48,0,0,1,213,36.4a11.31,11.31,0,0,0-3.55-.67A5.22,5.22,0,0,0,206,36.85a7,7,0,0,0-2.07,3.27,23.24,23.24,0,0,0-1,5.2c-.18,2-.28,4.43-.28,7.31Z"></path>
                    <path id="path81090" d="M232.2,33.45l6.26,21.43L244.15,35c.61-2.09,1-3.5,1.33-4.25a5.69,5.69,0,0,1,1.65-2.18,5,5,0,0,1,3.34-1.05,4.9,4.9,0,0,1,3.34,1.05,5.71,5.71,0,0,1,1.72,2.25c.33.79.78,2.19,1.37,4.18l5.69,19.92,6.32-21.43c.42-1.55.76-2.66,1-3.34a4.38,4.38,0,0,1,1.3-1.83,3.86,3.86,0,0,1,2.64-.8,4.18,4.18,0,0,1,3,1.19,3.73,3.73,0,0,1,1.27,2.81A14.84,14.84,0,0,1,277,35.94l-7.84,23c-.67,2-1.2,3.35-1.58,4.22a6.14,6.14,0,0,1-1.79,2.32,4.9,4.9,0,0,1-3.3,1,5.12,5.12,0,0,1-3.44-1.09,6.72,6.72,0,0,1-1.83-2.67c-.4-1.06-.83-2.43-1.3-4.11l-5.48-18.69-5.3,18.69a23.43,23.43,0,0,1-2.29,5.9q-1.23,2-4.32,2a5.44,5.44,0,0,1-2.7-.63A5.12,5.12,0,0,1,234,64.11a14.14,14.14,0,0,1-1.3-2.7c-.37-1-.67-1.89-.88-2.5l-7.76-23a16.33,16.33,0,0,1-1.16-4.46,3.84,3.84,0,0,1,1.23-2.78,4.14,4.14,0,0,1,3-1.22c1.59,0,2.67.45,3.23,1.37a19.55,19.55,0,0,1,1.79,4.6Z"></path>
                    <path id="path81092" d="M305.82,61.06a30.06,30.06,0,0,1-6.75,4.07,18.84,18.84,0,0,1-7.27,1.34A14.08,14.08,0,0,1,285.3,65a10.89,10.89,0,0,1-4.28-4,10.26,10.26,0,0,1-1.51-5.41A9.7,9.7,0,0,1,282,48.94a12.57,12.57,0,0,1,6.85-3.73c.61-.14,2.12-.45,4.53-.94s4.48-.94,6.19-1.34,3.6-.92,5.62-1.51a9.84,9.84,0,0,0-1.55-5.55q-1.33-1.78-5.58-1.79a11.78,11.78,0,0,0-5.52,1,9.16,9.16,0,0,0-3.16,3c-.87,1.36-1.49,2.26-1.86,2.71a3.06,3.06,0,0,1-2.32.63,4.17,4.17,0,0,1-2.81-1,3.45,3.45,0,0,1-1.16-2.67A8.12,8.12,0,0,1,283,32.89,12.8,12.8,0,0,1,288.61,29a25.19,25.19,0,0,1,9.45-1.54A26.44,26.44,0,0,1,308,28.92a9.08,9.08,0,0,1,5.09,4.7,20.41,20.41,0,0,1,1.51,8.57q0,3.38,0,5.73c0,1.57,0,3.31,0,5.23a19.67,19.67,0,0,0,.88,5.66,17.11,17.11,0,0,1,.91,3.76,3.58,3.58,0,0,1-1.4,2.7,4.63,4.63,0,0,1-3.13,1.2,4.27,4.27,0,0,1-2.91-1.37,21.17,21.17,0,0,1-3.06-4Zm-.63-13.88A48.35,48.35,0,0,1,299,48.83q-4,.86-5.55,1.27a7.29,7.29,0,0,0-2.95,1.58A4,4,0,0,0,289.13,55a4.91,4.91,0,0,0,1.65,3.72,6.18,6.18,0,0,0,4.33,1.51A11.26,11.26,0,0,0,300.34,59a8.38,8.38,0,0,0,3.55-3.23c.86-1.45,1.3-3.84,1.3-7.17V47.18Z"></path>
                    <path id="path81094" d="M329.64,67.66l.88-2.14L318.71,35.8a11.29,11.29,0,0,1-1.09-3.72,4.42,4.42,0,0,1,.64-2.29,4.78,4.78,0,0,1,4-2.31,3.72,3.72,0,0,1,3.12,1.33,11.83,11.83,0,0,1,1.87,3.76l8.11,23.6,7.69-22A38.74,38.74,0,0,1,344.74,30a5.05,5.05,0,0,1,1.55-2,4.45,4.45,0,0,1,2.35-.52,3.93,3.93,0,0,1,2.08.59,3.83,3.83,0,0,1,1.54,1.55,4,4,0,0,1,.56,2.07c-.09.45-.24,1.08-.45,1.9a25.38,25.38,0,0,1-.78,2.49l-12.5,32.74a38.56,38.56,0,0,1-3.16,6.78,10.26,10.26,0,0,1-4.11,3.76A14.79,14.79,0,0,1,325,80.69a16.74,16.74,0,0,1-6.33-.91,3.75,3.75,0,0,1-1.12-5.9,4.43,4.43,0,0,1,3-.88,5.56,5.56,0,0,1,1.51.21,7.09,7.09,0,0,0,1.58.21,5.71,5.71,0,0,0,2.6-.49,4.41,4.41,0,0,0,1.68-1.72,23.72,23.72,0,0,0,1.76-3.55Z"></path>
                </g>
                <g id="brokerway-symbol">
                    <path id="rect80816-4" class="cls-1" d="M380,.3h0a4.67,4.67,0,0,1,2.74,6L356.08,77.65a4.67,4.67,0,0,1-6,2.74h0a4.68,4.68,0,0,1-2.75-6L374,3A4.68,4.68,0,0,1,380,.3Z"></path>
                    <path id="rect80816-2-4" class="cls-1" d="M400.29.3h0a4.68,4.68,0,0,1,2.75,6L376.37,77.65a4.67,4.67,0,0,1-6,2.74h0a4.67,4.67,0,0,1-2.75-6L394.27,3A4.67,4.67,0,0,1,400.29.3Z"></path>
                </g>
            </g>
        </g>
    </g>
</svg>