<?xml version="1.0" encoding="utf-8"?>
<!-- Generator: Adobe Illustrator 17.0.2, SVG Export Plug-In . SVG Version: 6.00 Build 0)  -->
<!DOCTYPE svg PUBLIC "-//W3C//DTD SVG 1.1//EN" "http://www.w3.org/Graphics/SVG/1.1/DTD/svg11.dtd">
<svg version="1.1" id="Layer_1" xmlns="http://www.w3.org/2000/svg" xmlns:xlink="http://www.w3.org/1999/xlink" x="0px" y="0px"
	 width="681.186px" height="684.614px" viewBox="0 0 681.186 684.614" enable-background="new 0 0 681.186 684.614"
	 xml:space="preserve">
<g>
	<path fill="#DAD2C6" d="M604.303,136.922c0,2.502,0.104,5.009-0.017,7.505c-0.803,16.565-0.845,16.721,15.166,19.425
		c3.596,0.607,6.776,2.139,10.174,2.941c8.914,2.104,9.987,6.744,7.295,14.968c-7.973,24.358-7.98,25.106,18.462,37.218
		c9.71,4.448,8.853,9.276,5.398,16.46c-1.841,3.828-3.357,7.894-5.722,11.374c-6.97,10.255-1.608,16.487,6.645,21.954
		c1.186,0.786,2.538,1.317,3.762,2.05c15.51,9.283,15.951,11.245,5.684,25.648c-1.859,2.607-3.992,5.025-5.754,7.693
		c-4.224,6.393-4.4,12.015,1.515,18.153c18.983,19.698,19.002,20.072,0.24,39.275c-6.338,6.487-5.98,12.335-1.335,18.998
		c1.831,2.626,3.64,5.3,5.761,7.684c11.01,12.374,9.91,13.552-4.869,24.411c-2.285,1.679-5.028,2.733-7.315,4.408
		c-6.734,4.932-9.571,10.226-5.191,19.088c3.645,7.374,12.035,14.908,8.497,23.099c-3.349,7.754-14.253,8.348-21.713,12.273
		c-7.57,3.983-10.741,8.827-7.476,17.24c1.135,2.926,0.654,6.509,1.907,9.354c6.8,15.437,5.123,15.665-13.658,21.85
		c-1.322,0.435-2.859,0.17-4.245,0.466c-14.273,3.05-14.398,3.238-13.236,17.979c2.009,25.495,2.009,25.495-23.182,26.853
		c-11.964,0.645-15.229,4.608-17.244,20.937c-2.722,22.054-2.722,22.054-26.026,17.967c-11.821-2.073-14.754-0.021-17.382,12.195
		c-0.821,3.815-1.49,7.665-2.415,11.453c-2.793,11.441-5.594,12.926-16.941,9.185c-1.012-0.333-2.038-0.646-3.078-0.871
		c-22.841-4.953-23.443-5.205-33.878,19.426c-4.394,10.371-9.763,9.442-17.39,5.486c-2.82-1.463-5.638-2.949-8.545-4.224
		c-16.097-7.059-16.043-7-25.208,7.93c-2.219,3.615-4.858,7.002-7.561,10.282c-3.852,4.674-7.869,4.738-12.997,1.147
		c-23.065-16.149-23.349-16.228-43.063,3.588c-5.874,5.904-10.326,6.93-15.553,0.024c-0.641-0.847-1.498-1.531-2.257-2.288
		c-18.496-18.465-18.573-18.568-39.385-2.954c-7.377,5.535-12.261,5.539-18.315-2.796c-15.666-21.569-16.17-21.364-40.086-10.241
		c-7.983,3.713-13.773,3.716-15.915-6.4c-0.21-0.99-1.053-1.839-1.57-2.772c-12.208-21.982-12.341-22.383-36.735-14.263
		c-8.746,2.911-12.618,0.877-14.409-7.705c-1.087-5.208-3.631-10.188-4.198-15.413c-1.194-11.017-8.11-12.218-16.826-10.919
		c-26.076,3.886-26.071,3.919-26.784-21.799c-0.349-12.588-4.309-16.61-16.717-16.978c-26.186-0.776-26.217-0.781-22.08-26.508
		c1.526-9.488-0.794-15.049-11.613-17.484c-25.547-5.75-25.903-6.47-18.894-31.161c3.03-10.676,1.517-16.8-9.876-19.779
		c-5.386-1.408-10.303-4.678-15.364-7.239c-5.619-2.843-4.967-7.63-2.612-11.887c3.29-5.95,4.989-12.726,8.477-18.303
		c4.343-6.944,1.961-10.306-3.719-13.8c-2.413-1.484-4.443-3.577-6.758-5.239c-17.886-12.843-17.894-12.832-4.708-30.776
		c9.853-13.408,9.826-13.752-2.014-25.64c-15.32-15.383-15.321-15.383,0.254-31.045c11.579-11.644,11.59-11.769,2.212-24.829
		c-13.666-19.03-13.998-19.519,2.501-30.747c22.137-15.065,15.567-8.827,6.956-31.649c-5.418-14.36-6.914-13.795,6.591-21.25
		c0.31-0.171,0.562-0.449,0.871-0.624c21.288-12.053,21.669-12.179,13.758-35.987c-2.798-8.423-1.285-12.115,7.217-14.896
		c5.454-1.784,11.051-3.051,16.499-3.994c9.606-1.662,11.255-7.294,10.404-15.352c-2.839-26.869-2.83-26.87,23.371-28.255
		c10.553-0.558,14.668-4.655,15.214-15.222c0.111-2.14,0.095-4.288,0.074-6.432c-0.18-18.216-1.523-21.464,22.972-17.953
		c15.741,2.256,17.894,1.586,21.739-13.463c5.394-21.113,5.394-21.113,24.99-17.614c19.803,3.535,20.611,3.879,30.195-18.688
		c4.501-10.6,9.575-10.928,17.774-6.113c5.54,3.253,12.124,4.115,17.346,8.212c4.253,3.336,7.316,0.152,9.807-3.1
		c4.547-5.936,9.389-11.715,13.278-18.068c3.776-6.168,8.085-6.114,13.475-2.966c0.921,0.538,1.808,1.142,2.676,1.764
		c21.669,15.535,21.974,15.83,40.819-3.788c6.875-7.157,11.079-7.26,18.012-0.045c18.894,19.666,19.447,19.68,40.599,3.62
		c6.968-5.291,11.165-3.824,16.253,1.848c4.786,5.334,7.022,12.361,12.546,17.251c3.825,3.386,6.582,6.027,11.712,1.884
		c2.603-2.102,6.711-2.231,9.954-3.668c16.926-7.498,17.5-7.842,25.539,8.23c12.337,24.666,9.077,16.824,33.731,12.38
		c12.897-2.325,13.088-3.511,16.538,9.327c0.922,3.433,1.94,6.842,2.771,10.297c3.412,14.19,5.682,15.661,19.592,12.904
		c3.123-0.619,6.328-1.041,9.506-1.124c14.14-0.368,14.017-0.264,14.598,14.032c0.23,5.656,1.136,11.321,2.188,16.896
		c1.18,6.251,6.259,8.338,11.706,9.376c2.77,0.528,5.699,0.247,8.557,0.28C604.491,119.111,604.491,119.106,604.303,136.922z"/>
	<path fill="#FFFFFE" d="M595.735,143.314c0,1.787,0.08,3.579-0.013,5.361c-0.913,17.549-0.921,17.549,16.508,21.701
		c17.747,4.228,17.749,4.228,13.582,21.847c-0.328,1.385-0.696,2.761-1.056,4.138c-4.029,15.397-4.03,15.396,10.271,22.442
		c21,10.346,21.326,10.54,9.221,30.862c-4.937,8.289-3.26,13.804,3.794,19.181c6.75,5.145,17.17,8.332,19.029,16.244
		c1.807,7.689-7.525,13.693-12.315,19.909c-6.969,9.043-2.729,14.576,3.252,20.851c15.411,16.17,15.359,16.219,0.026,32.465
		c-10.103,10.705-10.075,12.251,0.476,25.939c11.29,14.648,11.29,14.648-2.618,25.437c-17.102,13.266-18.069,13.819-6.514,34.009
		c6.153,10.751,1.71,14.279-6.383,18.472c-21.553,11.168-21.715,11.262-15.807,34.78c2.271,9.039,0.299,13.546-9.593,15.835
		c-22.218,5.141-22.097,5.664-21.807,27.59c0.229,17.312,0.229,17.312-17.66,18.309c-19.327,1.077-20.492,2.297-20.892,21.865
		c-0.322,15.763-4.31,19.067-19.687,16.313c-20.082-3.597-21.603-2.54-25.324,17.58c-2.995,16.195-3.824,17.141-19.227,12.832
		c-23.947-6.7-20.796-8.106-31.524,15.77c-3.963,8.821-8.303,13.116-17.716,7.178c-2.974-1.876-6.351-3.108-9.53-4.662
		c-11.58-5.663-15.773-4.406-22.556,6.783c-11.614,19.158-11.59,19.122-29.641,6.889c-15.428-10.455-11.944-12.973-27.608,2.641
		c-2.026,2.019-4.169,3.935-6.05,6.08c-5.057,5.764-9.957,6.099-15.319,0.273c-4.354-4.73-9.139-9.059-13.625-13.671
		c-4.249-4.369-8.414-4.759-13.041-0.506c-2.08,1.912-4.713,3.207-6.913,5.005c-19.427,15.871-17.949,9.686-29.498-6.176
		c-8.993-12.351-9.537-13.229-23.087-6.538c-2.242,1.107-4.47,2.251-6.766,3.237c-12.526,5.381-15.737,3.922-20.654-8.853
		c-1.392-3.617-3.658-6.9-5.021-10.525c-2.792-7.423-7.675-8.396-14.498-5.743c-3.62,1.407-7.569,1.975-11.38,2.878
		c-14.206,3.366-16.942,1.479-19.622-13.487c-3.451-19.267-5.788-20.909-24.575-17.262c-14.799,2.873-17.056,1.456-19.76-13.398
		c-0.76-4.176-0.821-8.53-0.751-12.794c0.134-8.109-3.655-11.769-11.725-11.649c-4.964,0.074-9.883-0.023-14.872-1.234
		c-12.149-2.95-13.603-4.69-11.673-17.257c0.269-1.751,1.055-3.419,1.356-5.168c2.351-13.64,0.179-17.031-13.324-20.553
		c-2.739-0.714-5.682-0.677-8.396-1.458c-9.595-2.759-13.96-5.021-10.466-17.362c6.542-23.107,5.872-23.312-16.828-33.849
		c-7.151-3.319-10.024-7.181-6.153-15.809c10.789-24.043,10.528-24.482-10.364-39.179c-7.012-4.933-8.573-8.896-3.417-16.479
		c14.607-21.482,14.49-21.85-3.301-40.328c-5.82-6.045-5.444-10.369,0.224-16.212c18.393-18.964,18.402-19.236,2.431-41.37
		c-4.095-5.676-3.519-9.669,1.663-13.618c3.115-2.374,6.222-4.774,9.479-6.942c14.261-9.493,13.558-9.18,7.579-24.399
		c-7.36-18.733-13.59-17.848,9.028-28.267c16.281-7.5,15.93-8.262,10.924-25.891c-5.125-18.048-4.319-19.31,14.705-23.03
		c15.713-3.072,18.816-7.469,15.905-22.538c-3.519-18.214-2.022-20.351,16.069-22.253c3.541-0.372,7.143-0.187,10.717-0.228
		c7.079-0.081,10.402-3.748,10.38-10.723c-0.019-6.066,1.065-12.04,1.625-18.025c0.764-8.17,4.355-10.198,11.734-9.848
		c8.391,0.397,17.279,5.604,25.049,0.547c7.965-5.183,5.533-15.542,8.245-23.425c2.545-7.397,6.07-11.066,14.188-7.975
		c3.303,1.258,6.867,1.83,10.314,2.707c15.905,4.046,17.44,3.236,23.488-12.378c7.075-18.265,8.669-18.864,26.697-10.034
		c15.735,7.708,15.735,7.708,25.623-6.729c11.613-16.955,11.7-16.968,28.788-4.257c13.908,10.345,13.908,10.345,26.029-1.745
		c2.531-2.524,5.171-4.95,7.574-7.59c4.788-5.258,9.112-5.326,14.63-0.44c6.803,6.023,11.141,17.209,20.838,16.995
		c8.492-0.188,15.125-8.609,22.182-13.836c6.396-4.737,9.7-2.618,13.644,2.806c16.135,22.19,16.374,22.467,40.621,11.756
		c8.513-3.76,12.198-1.115,15.65,6.421c10.44,22.79,10.613,22.711,34.793,16.781c12.097-2.967,14.162-1.658,16.511,10.591
		c0.335,1.745,0.227,3.585,0.642,5.304c4.196,17.402,6.209,18.639,24.397,15.21c16.025-3.021,19.849,0.148,20.175,16.721
		c0.365,18.572,2.02,20.262,20.849,21.285C594.68,126.344,595.987,127.662,595.735,143.314z"/>
	<path fill="#515151" d="M572.59,157.561c-1.435,23.448-1.497,23.676,20.806,29.79c7.689,2.108,10.297,4.782,7.946,13.464
		c-7.246,26.763-9.967,20.931,14.959,32.568c8.173,3.816,9.535,7.328,5.491,15.386c-10.241,20.412-10.151,20.991,8.799,33.651
		c8.037,5.369,8.234,9.519,2.828,16.973c-13.066,18.017-13.084,18.606,2.776,33.725c7.246,6.907,6.893,11.306-0.142,18.031
		c-15.652,14.964-15.705,15.557-2.48,33.711c5.628,7.726,4.538,11.76-3.16,16.922c-18.733,12.563-18.881,13.086-8.547,33.724
		c4.134,8.255,2.172,11.513-5.757,15.266c-24.467,11.581-22.054,5.426-14.759,32.72c2.091,7.822,0.462,10.863-7.098,13.035
		c-22.737,6.533-22.87,6.783-21.46,30.742c0.422,7.173-1.413,10.162-9.124,10.747c-23.796,1.803-24.04,2.091-26.599,26.689
		c-0.77,7.399-3.374,9.717-10.79,9.113c-23.795-1.937-23.948-1.741-30.7,21.39c-1.924,6.589-4.3,9.42-12.08,7.296
		c-23.52-6.421-23.853-6.174-34.12,15.41c-3.322,6.984-6.953,9.589-13.845,5.002c-0.296-0.197-0.621-0.358-0.95-0.496
		c-23.796-10.04-18.018-14.458-33.846,8.915c-5.212,7.696-9.195,8.484-17.024,2.972c-21.672-15.258-15.093-16.249-33.821,2.736
		c-7.052,7.148-11.315,6.847-18.179-0.178c-18.355-18.786-12.599-17.667-32.987-2.976c-8.864,6.387-12.939,4.554-18.461-3.637
		c-14.693-21.796-10.124-18.368-31.284-8.387c-9.326,4.399-13.371,3.592-17.705-6.089c-10.88-24.303-6.53-20.412-30.133-13.909
		c-9.501,2.618-14.347,1.006-15.496-8.99c-0.121-1.054-0.553-2.069-0.819-3.108c-4.787-18.709-4.786-18.709-24.321-16.582
		c-14.667,1.597-14.667,1.597-15.975-13.033c-0.064-0.712-0.133-1.424-0.204-2.135c-1.781-17.703-1.779-17.717-19.087-19.558
		c-3.198-0.34-6.409-0.6-9.621-0.742c-4.82-0.213-7.242-2.514-6.877-7.45c0.053-0.713,0.123-1.425,0.157-2.139
		c1.161-24.058,1.205-24.195-22.732-32.033c-5.859-1.918-7.848-4.284-6.227-10.836c5.98-24.174,5.794-24.374-16.522-35.6
		c-5.491-2.762-7.315-5.403-4.647-11.618c9.894-23.049,9.804-23.284-9.649-37.798c-5.434-4.055-6.238-7.474-2.425-13.246
		c13.484-20.414,13.516-20.705-3.052-37.99c-5.284-5.513-4.657-9.085,0.349-14.242c16.551-17.05,16.568-17.326,3.044-37.17
		c-4.134-6.066-3.54-9.622,2.474-13.982c19.548-14.172,19.602-14.469,9.509-36.992c-2.918-6.512-1.323-9.388,4.817-12.366
		c22.279-10.807,22.463-11.081,16.24-34.824c-1.824-6.96,0.112-9.682,6.543-11.601c7.732-2.307,17.822-1.255,22.485-8.278
		c4.605-6.936,0.298-15.96-0.349-24.031c-0.52-6.488,2.006-8.687,8.369-9.327c24.739-2.489,24.935-2.666,27.649-28.053
		c0.719-6.73,3.658-8.227,9.755-7.94c8.055,0.38,17.124,5.266,23.916,0.184c6.621-4.954,5.748-14.924,8.106-22.689
		c1.776-5.849,4.183-7.921,10.805-6.315c24.456,5.93,24.715,5.761,35.567-16.312c3.08-6.264,6.2-7.346,12.53-4.447
		c22.094,10.118,22.358,10.046,36.901-9.72c4.328-5.882,7.806-6.654,13.964-2.372c19.787,13.76,20.157,13.764,37.154-2.973
		c5.812-5.723,9.545-5.089,15.019,0.288c16.927,16.628,17.263,16.673,36.367,3.202c6.32-4.456,10.016-4.362,14.772,2.215
		c14.264,19.724,14.616,19.763,36.076,9.655c6.622-3.119,9.951-2.325,13.301,4.53c10.833,22.161,11.172,22.343,34.731,16.098
		c7.045-1.867,9.769,0.178,11.624,6.539c2.264,7.765,1.306,17.838,8.217,22.536c6.884,4.679,15.936,0.087,24.004-0.472
		c6.623-0.459,8.599,2.2,9.367,8.377c3.077,24.75,3.22,25.085,27.968,27.643C573.766,147.086,573.202,152.095,572.59,157.561z"/>
	<path fill="#FCFCFC" d="M610.602,342.34C610.51,490.547,489.177,611.672,340.849,611.63
		C192.107,611.587,70.768,489.976,71.032,341.208C71.295,193.254,193,72.311,341.442,72.492
		C489.701,72.672,610.694,193.975,610.602,342.34z"/>
	<path fill="#494949" d="M301.303,595.464c-20.167-0.94-38.606-7.866-57.371-14.791c-21.976-8.11-41.779-19.781-60.122-33.531
		c-19.564-14.665-37.063-31.857-51.368-52.193c-7.376-10.485-14.664-20.966-20.325-32.375
		c-12.147-24.48-23.807-49.229-24.826-77.328c-1.127-2.56-1.97-5.249,1.051-6.985c2.207-1.269,3.696,0.329,4.829,2.123
		c2,4.624,0.459,9.75,2.213,16.22c5.445-9.456,9.692-18.1,15.451-25.745c2.467-3.275,3.991-7.65,8.944-8.284
		c2.531,0.538,3.267,2.35,3.327,4.651c-1.894,10.219-9.301,17.527-13.992,26.271c-5.676,10.579-10.791,21.1-6.04,32.653
		c3.657-17.43,14.522-32.399,22.655-48.629c2.874-3.296,5.25-9.737,10.036-1.685c0.422,0.977,0.7,1.997,0.852,3.052
		c0.183,2.756-0.422,5.215-2.703,7.024c-11.06,19.133-24.465,37.484-20.688,61.536c6.53-17.488,12.558-35.136,20.804-51.923
		c2.173-1.103,4.113-0.315,6.028,0.716c2.828,1.89,4.356,4.719,5.149,7.869c8.718,34.62,29.007,62.315,53.856,86.632
		c19.407,18.99,42.627,32.93,67.845,43.272c2.805,3.793-3.294,9.475,2.692,12.604c4.245,5.192,8.246,10.739,10.996,16.691
		c5.928,12.831,17.781,20.291,26.142,30.85C305.448,596.775,303.427,596.338,301.303,595.464z"/>
	<path fill="#4A4A4A" d="M92.149,383.728c-0.5-1.496-0.319-3.984-2.298-3.901c-3.575,0.15-1.966,3.452-2.559,5.42
		c-7.627-14.653-4.904-30.805-5.231-46.095c-0.561-26.273,3.783-52.451,12.546-77.293c7.949-22.534,17.067-44.598,31.496-64.338
		c13.269-18.153,27.439-35.136,44.381-49.918c12.344-10.77,25.364-20.444,39.763-28.285c5.734-3.122,11.237-6.668,16.845-10.021
		c2.691-0.137,4.761,0.548,4.968,3.72c1.08,5.205,6.052,3.998,9.294,5.52c11.691,5.488,25.386,6.503,35.353,15.87
		c-0.175,1.738-1.256,2.733-2.748,3.4c-5.923,1.734-11.196-0.704-16.433-2.791c-8.59-3.423-17.416-6.001-26.329-8.416
		c-7.545-2.044-14.674-2.106-22.326,2.616c11.4,2.561,22.421,3.915,32.811,7.725c3.589,1.316,7.806,1.641,9.329,6.115
		c-0.476,2.65-2.511,3.376-4.731,3.885c-12.468-0.557-24.303-4.704-36.559-6.609c-8.552-1.33-16.131-0.431-23.321,5.006
		c21.826-1.169,43.078,10.129,65.19,2.216c1.137,0.003,2.189,0.301,3.166,0.877c2.469,10.191-6.22,9.582-11.684,12.093
		c-4.634-3.758-8.399,2.164-12.799,1.175c-6.777-2.632-13.841-3.453-21.045-3.375c-8.575-0.01-16.899-2.848-25.57-2.083
		c-6.154,0.543-11.915,1.964-17.012,6.403c19.499-0.519,39.027,2.971,58.415-1.811c1.09-0.215,2.166-0.174,3.238,0.097
		c1.44,0.815,2.563,1.951,3.413,3.36c-3.133,8.293-11.485,11.155-17.647,15.949c-23.627,18.378-42.326,40.616-56.039,67.114
		c-3.909,7.553-8.39,14.84-10.987,23.044c-0.857,2.709-2.292,5.241-5.346,6.209c-1.034,0.11-2.02-0.084-2.955-0.523
		c-1.536-2.556-2.897-4.774-6.549-2.327c-10.93,7.324-22.576,13.596-32.532,22.339c-4.441,3.9-7.247,8.726-8.191,15.024
		c12.035-7.469,20.74-19.366,34.518-23.795c1.648,0.302,2.727,1.242,3.201,2.859c-0.033,5.428-4.261,7.848-7.771,10.756
		c-7.654,6.342-15.821,12.066-22.65,19.396c-4.993,5.359-8.239,11.448-9.43,19.163c12.148-9.825,20.018-23.675,34.306-30.243
		c1.548,0.487,2.65,1.482,3.356,2.93c1.155,6.536-3.682,10.021-7.769,13.002c-8.531,6.223-14.339,14.88-21.586,22.222
		c-4.797,4.86-5.98,11.231-7.173,17.57c-0.598,3.18,0.133,5.694,3.749,6.517c1.389,0.788,2.396,1.892,2.94,3.405
		C97.542,379.011,96.489,382.305,92.149,383.728z"/>
	<path fill="#4D4D4D" d="M355.529,597.653l-0.522,0.351l-0.495-0.388c-4.57,1.657-8.347,0.673-11.221-3.344
		c-18.678-11.82-31.787-29.279-46.088-45.544c1.253-2.251,3.421-2.903,5.73-3.331c13.317-1.26,26.436,1.964,39.782,1.583
		c9.14-0.261,18.053-3.103,27.232-1.904c2.768-0.069,5.492-0.632,8.246-0.927c2.279-0.097,4.393,0.226,5.743,2.376
		c0.3,1.083,0.235,2.148-0.176,3.194c-2.192,4.712-6.489,5.045-10.861,5.234c-1.75,0.173-3.566-0.225-7.096,1.412
		c17.81,10.038,31.871,25.155,56.313,22.737c-10.845-5.641-20.404-8.773-29.007-13.773c-4.53-2.632-10.018-4.102-12.374-9.58
		c1.048-3.164,3.671-3.346,6.368-3.399c10.802,1.764,19.482,8.597,29.442,12.4c9.637,3.679,19.104,8.517,30.464,3.177
		c-14.675-5.922-30.791-7.302-42.646-18.302c0.446-2.604,2.443-3.311,4.612-3.816c8.538-0.402,15.786,4.041,23.64,6.251
		c12.191,3.43,24.3,9.124,37.463,2.18c-11.212-0.877-21.78-4.168-32.348-7.44c-3.695-1.144-7.821-1.65-9.752-5.812
		c1.371-4.239,5.052-3.934,8.387-4.315c12.761,1.331,24.965,5.7,37.815,6.86c7.105,0.641,13.358-0.401,19.149-5.083
		c-19.708,1.857-38.223-8.388-58.028-5.002c-2.824-0.161-5.562-0.521-7.233-3.236c-0.108-4.916,3.682-6.576,7.204-8.108
		c21.902-9.531,38.845-25.665,55.917-41.656c2.718-2.546,4.395-6.775,9.271-6.084c4.756,3.675,3.177,7.705,0.69,11.789
		c-1.926,2.509-4.941,3.868-8.581,7.566c11.02-2.376,20.435-1.908,29.778-3.333c10.029-1.53,19.336-3.94,26.639-11.539
		c1.71-1.779,3.967-2.982,6.694-2.552c2.325,1.182,3.34,2.735,1.467,5.111c-14.058,21.481-30.464,40.988-50.319,57.285
		c-19.49,15.997-40.242,30.134-64.025,39.281c-4.935,1.898-9.566,4.584-14.338,6.906c-6.096,3.838-13.652,2.631-19.948,5.776
		l-0.845-0.098l-0.646,0.554c-8.423,4.845-17.65,5.459-27.053,5.143c-2.068,0.021-4.148,0.104-5.988-1.102
		c-20.385-11.107-35.159-30.106-56.605-39.981c3.368,5.096,7.746,9.216,11.97,13.457c4.278,4.295,8.513,8.632,12.933,12.785
		c4.711,4.425,10.88,6.791,15.623,11.168C358.974,595.141,356.794,596.182,355.529,597.653z"/>
	<path fill="#494A49" d="M597.63,333.514c1.25,25.571-2.113,50.472-8.623,75.29c-6.164,23.498-16.141,45.086-27.81,66.111
		c-3.95,0.555-4.638-3.895-7.578-4.917c-0.763-0.649-1.206-1.466-1.357-2.451c2.414-7.027,10.969-8.805,13.309-16.022
		c-9.492,2.679-18.029,8.799-28.405,8.818c-2.62-0.315-5.217-0.679-6.214-3.704c3.272-5.964,9.68-6.628,15.139-8.773
		c8.268-3.249,16.595-6.382,23.596-12.004c2.986-2.398,5.406-5.457,5.9-10.53c-18.874,12.114-40.484,17.633-58.002,31.021
		c-3.027-1.383-3.244-3.999-3.018-6.816c9.742-15.187,15.894-31.961,21.489-48.973c3.082-4.365,6.596-8.209,12.072-9.572
		c10.627-9.462,22.803-17.023,32.574-27.558c5.252-5.663,8.95-11.727,10.374-20.692c-12.703,13.05-24.813,24.914-36.768,36.939
		c-2.216,2.229-3.319,6.887-8.198,5.021c-3.886-5.209-2.067-11.25-2.546-16.961c1.453-14,1.787-28.004,0.379-42.033
		c-0.564-5.615-1.014-11.253,0.781-16.771c1.617-2.501,3.291-4.893,6.736-2.536c2.017,2.636,1.518,5.993,2.373,10.035
		c7.538-10.726,14.364-20.739,19.875-31.599c1.578-3.111,2.636-6.575,6.005-8.413c0.975-0.41,1.99-0.639,3.04-0.741
		c1.626-0.025,3.132,0.357,4.466,1.318c1.094,1.508,0.516,2.931-0.202,4.35c-6.596,16.407-17.744,30.087-26.987,44.912
		c-2.796,4.485-5.125,9.089-5.161,15.022c10.718-10.152,16.48-23.877,28.512-32.044c2.476,0.408,3.253,2.222,3.638,4.368
		c-0.327,7.831-5.974,12.566-10.412,18.064c-8.587,10.636-19.401,19.779-24.253,35.818c16.236-15.464,31.695-28.529,39.168-48.169
		c3.354-2.077,5.134-1.342,5.358,2.788C597.086,325.912,596.1,329.8,597.63,333.514z"/>
	<path fill="#515150" d="M583.36,277.55c-0.947,0.024-1.894,0.048-2.841,0.073c-3.976-4.485-1.246-10.317-3.837-17.285
		c-4.125,11.798-8.804,21.664-14.663,30.901c-2.047,3.227-3.158,7.246-7.435,8.535c-2.504-0.44-3.25-2.305-3.651-4.457
		c0.785-10.308,7.595-18.121,11.327-27.216c4.157-10.132,9.556-20.054,3.621-33.946c-2.334,12.419-6.67,22.044-10.297,31.946
		c-1.66,4.531-2.591,9.728-7.742,12.127c-3.205-1.057-3.557-3.799-3.915-6.542c0.734-13.011,8.371-23.973,10.863-36.508
		c1.588-7.986,2.721-15.713-2.012-24.87c-3.457,15.627-3.066,30.638-13.342,42.15c-4.264-1.394-3.941-5.103-4.324-8.458
		c0.666-9.282,3.929-18.068,5.334-27.227c1.54-10.033,1.699-19.872-3.789-30.987c-0.179,14.376-0.798,27.047-4.882,39.207
		c-3.946,6.379,0.99,14.83-4.829,20.762c-11.55-2.337-13.001-12.231-15.805-21.122c0.364-2.238,1.324-4.109,3.342-5.301
		c3.944-0.308,4.215,4.357,7.909,5.726c1.237-16.332,5.73-32.183,1.635-48.405c-1.737-6.879-2.875-7.842-8.109-8.386
		c-1.861,4.231,0.078,9.463-3.584,13.163c-4.768,0.008-4.955-3.94-4.81-6.784c0.624-12.287-4.951-21.932-11.266-29.371
		c7.022,19.627,2.118,43.099,10.412,64.299c-0.043,1.788-0.93,3.087-2.372,4.052c-5.76,0.605-7.384-4.717-10.501-7.658
		c-8.183-7.722-15.192-16.652-24.719-23.001c-3.455-2.302-6.685-5.312-7.149-10.018c0.349-2.152,1.264-3.953,3.196-5.115
		c3.29-0.171,4.66,2.928,7.991,4.919c-1.864-17.028-7.625-32.254-11.537-47.894c1.61-3.135,4.908-4.018,7.627-5.681
		c21.595,11.207,40.115,26.538,56.91,43.847c16.836,17.352,30.524,37.056,42.402,58.241c5.602,9.992,7.041,21.749,14.487,30.708
		c2.327,3.276,3.951,6.732,2.782,10.902C584.472,267.685,587.268,273.173,583.36,277.55z"/>
	<path fill="#484848" d="M464.907,168.48c-0.095,1.847-0.609,3.453-2.466,4.286c-0.298,0.19-0.606,0.56-0.892,0.544
		c-6.382-0.368-31.986-15.618-35.913-21.346c0.269-1.656,1.249-2.786,2.657-3.578c1.576-0.528,4.436-0.866,3.362-3.001
		c-8.954-17.805-13.379-39.008-36.098-48.563c9.015,11.304,15.995,22.178,20.965,34.233c1.189,2.885,3.421,5.625,1.633,9.069
		c-0.765,0.734-1.667,1.174-2.727,1.285c-6.893-2.344-8.436-9.185-11.791-14.378c-7.704-11.925-14.994-24.112-26.834-32.62
		c-1.453-1.044-2.475-2.524-2.46-4.478c1.342-2.636,3.432-2.014,5.549-1.278c18.875-0.357,35.831,7.008,53.133,13.082
		c12.729,4.469,24.757,10.304,36.178,17.441c-1.448,2.697-2.262,6.41-6.76,4.214c-5.43,0.706-7.715-4.61-12.785-6.487
		c6.03,13.737,10.51,27.451,14.354,41.364C464.923,161.556,467.124,164.867,464.907,168.48z"/>
	<path fill="#4E4E4E" d="M379.894,88.654c-1.881,0.319-3.874,0.395-5.028,2.302c-3.95,3.872-8.59,0.315-12.814,1.211
		c-3.326-1.011-6.667-3.19-9.958,0.136c-5.806,0.317-11.583-1.36-17.39-0.172c-3.85-0.342-7.748-3.98-11.54,0.196
		c-3.578,1.601-7.384,1.176-10.846,0.972c12.28,6.394,21.808,16.475,32.534,25.006c6.357,5.056,12.322,12.331,22.241,8.288
		c1.269-0.96,2.619-1.724,4.235-1.914c3.187,0.813,4.723,2.728,4.092,6.105c-2.523,6.008-8.137,6.215-13.377,7.162
		c-13.887-1-27.726-1.472-41.578,0.869c-5.212,0.881-10.682,1.097-15.707-1.527c-2.249-1.986-2.062-4.05-0.189-6.16
		c4.649-3.178,10.636-1.037,15.38-3.842c2.856-1.328,6.208,2.249,8.914-0.905c3.948-0.839,7.738,1.137,11.901,0.588
		c-11.24-7.566-20.715-17.239-32.307-23.915c-8.58-4.941-17.49-10.658-27.882-3.875c-0.772,0.595-1.635,1.019-2.556,1.322
		c-0.954,0.096-1.887-0.041-2.791-0.343c-3.165-1.878-7.652,0.643-10.29-3.047c0.297-3.603,3.609-2.465,5.525-3.521
		c0.628,0.19,1.107,0.001,1.435-0.567c8.64-5.423,18.699-4.332,28.129-6.128c22.892-3.955,45.98-1.297,68.97-1.909
		C372.754,84.887,376.696,86.141,379.894,88.654z"/>
	<path fill="#4B4B4B" d="M306.868,131.531c-1.954,0.688-2.68,2.232-2.886,4.139c-0.633,7.813-7.287,6.017-11.9,7.495
		c-7.3-1.235-13.116,2.452-19.039,5.81c-6.445,1.664-12.901,4.706-19.313-0.078l0.051,0.145c-2.338-1.865-7.545,1.443-7.738-4.291
		c1.736-0.081,3.37-0.379,4.385-2.023c3.273-3.738,7.802-2.555,11.912-3.09c3.716-0.484,7.993,0.907,10.75-3.023
		c1.025-0.685,2.051-1.37,3.076-2.056c4.125-3.626,9.641,0.824,15.122-3.086c-18.825-7.952-35.13-20.317-56.45-17.635
		c-1.455,0.183-2.775-0.383-3.72-1.603c-1.343-0.98-2.685-1.959-4.028-2.939c7.777-3.306,15.554-6.611,23.331-9.917
		c2.92-1.364,5.561-3.759,9.196-2.492c5.207,1.996,10.875,0.935,16.154,2.444l0.444,0.394c0.589,0.964,0.523,1.881-0.19,2.753
		c-4.829,3.176-10.464,1.202-18.034,2.984c15.649,5.5,28.269,12.704,40.984,19.724C301.95,126.828,306.054,127.166,306.868,131.531z
		"/>
	<path fill="#515050" d="M344.294,591.159c3.222,2.44,4.645,7.724,10.214,6.458c-17.914,3.789-35.649,3.037-53.205-2.153
		c1.855-0.321,3.824-0.408,4.902-2.35c3.293-2.058,5.304-3.831,1.021-7.417c-8.512-7.126-13.678-17.233-21.446-25.096
		c-2.511-2.542-3.899-5.924-4.31-9.581c1.449-3.572-3.616-7.218,0.095-10.786c5.5-2.183,10.55-0.238,15.619,1.648
		c2.49,1.271,5.013,2.52,5.539,5.697c-1.692,0.739-3.385,1.477-5.077,2.216c-1.208,1.615-6.931,0.868-2.75,5.302
		c8.721,9.251,15.33,20.341,24.575,29.065C326.279,590.586,334.383,594.662,344.294,591.159z"/>
	<path fill="#686868" d="M585.506,314.765c-0.379-1.909-0.274-4.08-2.657-4.903c-0.828-9.988,3.068-19.682,1.854-29.694
		c0.783-0.859,1.566-1.719,2.348-2.578c-1.091-1.331-1.105-2.74-0.311-4.21c0.912-0.68,1.776-0.622,2.591,0.172
		c-0.691,3.835,3.762,6.646,2.125,10.669c-2.506,7.858-0.325,15.779-0.294,23.677C590.879,311.504,589.803,314.468,585.506,314.765z
		"/>
	<path fill="#686868" d="M597.63,333.514c-3.028-2.848-1.972-6.616-2.109-10.043c-0.103-2.592-0.384-4.255-3.474-2.741
		c-4.555-3.183-1.845-7.377-1.565-11.23c0.131-2.925,0.649-5.705,2.994-7.782C600.736,311.549,596.155,322.927,597.63,333.514z"/>
	<path fill="#515050" d="M355.529,597.653c0.72-1.462,1.44-2.924,2.16-4.386c5.344-5.452,11.142-1.663,16.795-0.824
		c1.091,2.186,3.139,2.726,5.296,3.077c0.07,0.847-0.28,1.408-1.118,1.633C370.97,598.188,363.305,600.509,355.529,597.653z"/>
	<path fill="#ECEBEB" d="M378.662,597.154c0.351-0.559,0.724-1.104,1.118-1.633c9.082-1.47,18.163-2.94,27.245-4.41
		C398.801,598.896,388.589,597.358,378.662,597.154z"/>
	<path fill="#272727" d="M593.476,301.718c-0.591,2.199,0.138,4.891-2.384,6.367c-0.445-0.02-0.89-0.039-1.334-0.058
		c-1.617-8.091-0.685-16.001,1.698-23.806C593.009,289.952,589.583,296.257,593.476,301.718z"/>
	<path fill="#EBEAE9" d="M300.029,86.897c-9.376,2.043-18.753,4.085-28.129,6.128C280.036,85.289,290.182,86.779,300.029,86.897z"/>
	<path fill="#ECEBEB" d="M589.331,273.551c-0.524-0.381-1.11-0.566-1.758-0.554c-3.63-2.741-4.456-6.169-2.52-10.275
		c-0.683-3.583-1.366-7.165-2.049-10.748C590.173,257.683,586.83,266.474,589.331,273.551z"/>
	<path fill="#DDDCDB" d="M259.057,97.599c-2.878,0.594-5.757,1.188-8.635,1.782c5.529-5.917,12.761-5.935,20.042-5.789
		c-1.876,1.164-3.753,2.327-5.629,3.491C263.102,99.424,261.098,98.72,259.057,97.599z"/>
	<path fill="#ECEBEB" d="M408.516,590.655c5.863-4.64,13.523-3.076,19.948-5.776C423.069,591.134,415.315,589.245,408.516,590.655z"
		/>
	<path fill="#6A6A6A" d="M555.308,468.792c4.568-0.464,3.252,4.73,5.888,6.123c-0.248,2.851-1.728,4.933-4.05,6.49
		c-0.13-1.803,0.087-3.796-2.37-4.323c-1.651-1.908-0.846-4.151-0.871-6.284C554.036,469.898,554.509,469.23,555.308,468.792z"/>
	<path fill="#FBFBFB" d="M296.791,544.078c-5.456-0.44-10.595-3.511-16.291-1.969c-1.28,1.003-2.707,1.032-4.201,0.65
		c-3.5-1.752-6.806-3.76-9.021-7.144c-20.124-5.626-37.38-16.839-53.796-29.076c-15.813-11.787-29.622-25.859-41.014-42.193
		c-12.847-18.42-25.873-36.651-29.723-59.57c-0.42-2.499-2.313-4.75-3.523-7.116c-5.392-5.7-2.205-13.265-4.279-19.686
		c0.163-0.603,0.022-1.123-0.425-1.56c-6.607-19.781-6.51-39.913-3.166-60.204c-3.082-13.186,6.739-23.831,7.169-36.34
		c0.499-1.715,1.5-3.08,2.911-4.157c8.756-17.097,16.345-34.7,27.227-50.804c10.852-16.059,23.898-29.794,38.213-42.43
		c7.655-6.757,16.535-12.126,24.862-18.121c2.972-2.47,4.63-7.513,10.073-5.141c2.897-4.686,13.008-1.038,11.925-10.322
		c6.499-0.791,12.999-1.582,19.499-2.373c6.118-1.634,11.606-5.134,17.962-6.063c4.388-1.263,9.699-0.063,12.789-4.791
		c14.556,2.469,28.821-3.137,43.468-1.436c5.522,0.641,11.238,0.087,16.729,1.687c4.554-1.062,9.18-1.526,13.84-1.712
		c13.554,4.65,27.765,7.168,41.141,12.444c2.771,0.815,5.377,1.867,6.61,4.798c12.224,7.105,24.448,14.21,36.672,21.315
		c8.592,10.361,20.583,17.038,29.273,27.476c3.752,4.507,7.771,8.985,11.702,13.445c5.203,1.515,8.888,4.345,8.939,10.322
		c2.343,8.262,7.756,14.747,12.517,21.608c5.475,5.267,9.335,11.982,10.923,18.961c3.292,14.466,8.122,28.566,10.348,43.275
		c0.634,15.36,0.985,30.739,2.068,46.067c0.342,4.837-2.907,8.718-2.137,13.387c-0.264,11.497-1.928,22.661-7.821,32.817
		c-4.357,17.901-11.407,34.651-21.435,50.126c-3.311,1.815-2.526,5.856-4.522,8.385c-0.809,1.729-1.519,3.498-2.181,5.293
		c-2.241,5.196-5.298,9.544-11.308,10.784c-16.591,20.482-36.547,36.912-60.035,48.823c-3.461,1.755-6.561,4.015-10.029,5.671
		c-2.213,2.457-5.436,3.416-7.967,5.41c-1.15,0.858-2.361,1.607-3.662,2.214c-4.436,2.057-9.463,2.381-13.782,4.785
		c-3.198,1.799-6.347,3.698-10.029,4.385c-4.857,1.955-9.563-2.449-14.425-0.317c-2.054,0.681-3.623,3.052-6.235,1.793
		c-8.457-1.242-16.914,1.426-25.02,1.082C330.682,547.839,313.457,548.505,296.791,544.078z"/>
	<path fill="#EDECEC" d="M187.314,542.523c-17.091-8.943-19.439-18.625-17.938-71.319c8.735,4.28,11.05,10.58,12.1,33.087
		C182.071,517.059,183.808,529.668,187.314,542.523z"/>
	<path fill="#E2E0E0" d="M184.824,487.255c13.333,9.152,13.638,22.458,16.128,34.583c2.489,12.12,4.448,24.341,10.004,35.855
		C193.564,553.466,187.874,538.261,184.824,487.255z"/>
	<path fill="#EDECEC" d="M157.586,449.258c14.942,24.429,0.726,50.297,8.964,74.377
		C147.423,515.554,149.201,490.103,157.586,449.258z"/>
	<path fill="#E5E4E3" d="M145.778,502.524c-7.866-6.399-11.449-14.354-10.871-24.221c0.862-14.722,6.11-28.601,8.035-43.107
		c0.24-1.809,0.399-3.654,2.828-3.615c1.985,0.032,3.278,1.172,3.926,3.023c1.918,5.476,2.654,11.038,1.781,16.854
		C148.955,468.27,145.318,484.972,145.778,502.524z"/>
	<path fill="#E4E3E2" d="M128.164,481.726c-17.857-28.667,3.182-50.359,7.639-75.114
		C144.238,416.364,144.121,417.414,128.164,481.726z"/>
	<path fill="#ECEBEA" d="M134.568,395.704c-2.19,12.787-8.51,24.115-12.819,36.152c-2.716,7.588-4.704,15.38-5.992,24.219
		c-12.162-13.715-0.891-57.914,16.867-71.209C136.141,387.965,137.774,391.401,134.568,395.704z"/>
	<path fill="#F0EFEF" d="M221.523,517.404c24.543,15.317,22.954,44.872,40.652,62.922
		C241.873,581.851,233.946,559.075,221.523,517.404z"/>
	<path fill="#EFEEEE" d="M92.149,383.728c1.408-3.108,2.817-6.216,4.225-9.324c1.333-10.122,9.732-15.882,14.8-23.683
		c2.649-4.077,6.153-7.661,9.485-11.299c1.971-2.003,4.171-4.848,7.006-3.615c3.42,1.488,2.866,5.43,2.346,8.439
		c-1.307,7.557-2.243,15.49-10.748,19.051c-8.732,12.323-17.47,24.644-23.56,40.167C89.909,396.72,93.14,389.812,92.149,383.728z"/>
	<path fill="#F0EFEE" d="M288.598,588.844c-31.411-6.166-32.765-36.112-45.297-57.215
		C267.987,543.115,270.268,572.329,288.598,588.844z"/>
	<path fill="#F0EFEE" d="M127.624,378.288c-7.527,17.157-18.594,32.646-23.741,52.492c-6.185-9.692-6.349-18.118-2.57-27.183
		c5.356-12.847,14.037-23.772,20.297-36.078c1.776-2.284,1.868-7.148,5.893-6.011c3.35,0.946,3.75,5.149,2.724,8.118
		C129.236,372.49,130.438,376.027,127.624,378.288z"/>
	<path fill="#F2F1F0" d="M282.505,550.215c10.117,14.779,20.27,29.53,34.334,41.966c-3.936,2.648-7.443,0.226-10.633,0.933
		c-15.844-6.658-22.926-21.298-31.505-34.576c-2.294-3.549-4.619-7.078-6.93-10.617c-1.313-1.89-3.7-3.942-2.038-6.194
		c2.252-3.05,5.391-1.859,8.175-0.194C277.298,543.902,281.762,545.218,282.505,550.215z"/>
	<path fill="#EEEDED" d="M203.512,509.424c-1.36-3.915-0.97-6.403,3.382-2.871c5.331,4.327,8.76,10.081,10.98,16.688
		c5.383,16.019,8.574,32.833,19.48,49.777c-20.616-7.636-25.377-22.571-28.002-38.988
		C206.903,525.947,207.759,517.08,203.512,509.424z"/>
	<path fill="#6A6A6A" d="M127.624,378.288c0.949-5.213,2.066-10.417,0.779-15.855c-4.345-1.049-3.587,4.72-6.792,5.086
		c-0.024-1.829-0.311-3.512-2.348-4.222c4.889-7.783,9.172-15.771,8.867-25.431c-4.108-1.651-3.916,3.416-6.534,3.804
		c-1.761-1.229-2.886-2.819-2.885-5.054c3.525-8.209,7.34-16.297,10.925-24.493c2.544-1.546,3.66,0.346,4.866,2.022
		c-4.352,20.758-0.584,41.514,0.016,62.27C130.479,370.634,130.191,378.655,127.624,378.288z"/>
	<path fill="#787877" d="M274.109,543.621c-2.665-0.41-5.115-3.555-7.771-1.281c-0.643,0.551,0.897,3.652,1.433,5.581
		c-6.596-3.845-5.768-7.987-0.492-12.307c3.651,0.951,7.563,1.476,9.223,5.667C276.339,542.711,275.015,542.952,274.109,543.621z"/>
	<path fill="#6A6A6A" d="M134.568,395.704c-0.648-3.613-1.296-7.225-1.943-10.838c2.452-1.732,1.592-4.578,2.318-6.891
		c4.504,5.893,2.973,13.098,4.279,19.686C137.671,397.009,136.119,396.356,134.568,395.704z"/>
	<path fill="#E2E0E0" d="M203.512,509.424c6.551,7.107,4.902,16.159,5.84,24.602C205.66,526.242,205.444,517.629,203.512,509.424z"
		/>
	<path fill="#E9E8E8" d="M139.696,188.461c18.946-26.254,46.762-14.091,71.293-16.374
		C190.295,190.181,162.627,179.42,139.696,188.461z"/>
	<path fill="#DDDCDB" d="M231.119,112.236c13.239-4.345,25.17-0.107,36.903,5.578c8.644,4.189,17.321,8.308,26.002,12.421
		c1.601,0.758,3.612,1.335,3.236,3.514c-0.362,2.095-2.404,2.315-4.196,2.488c-5.741,0.552-11.366-0.092-16.896-1.677
		c-14.803-5.82-29.217-12.72-44.981-15.845C221.347,116.764,229.053,114.423,231.119,112.236z"/>
	<path fill="#D8D6D6" d="M246.044,144.752c2.393,1.766,6.277,0.844,7.738,4.291c-8.484,4.59-17.36,5.787-26.941,4.19
		c-15.776-2.63-31.494-6.22-48.062-5.13c6.511-8.238,14.797-12.726,25.212-11.137C218.077,139.115,232.032,142.116,246.044,144.752z
		"/>
	<path fill="#E4E3E2" d="M179.438,204.407c-19.399,22.581-48.269,18.508-68.614,34.04
		C113.155,216.496,137.091,211.899,179.438,204.407z"/>
	<path fill="#E7E6E5" d="M273.091,136.616c2.75,5.423-1.071,6.099-4.808,6.218c-5.944,0.189-11.902-0.048-17.854-0.104
		c-15.634-5.797-31.696-9.809-48.619-12.045c7.769-6.433,16.199-10.48,26.541-7.491
		C243.308,127.516,258.182,132.128,273.091,136.616z"/>
	<path fill="#E7E6E6" d="M129.73,312.363c0.362,9.987-5.307,17.531-10.274,25.358c-6.149,13.161-16.612,22.98-26.031,33.607
		c-2.787,3.943-5.349,5.416-5.698-1.156c-0.485-9.144,1.937-17.545,8.206-24.443c10.173-11.193,20.496-22.25,30.756-33.365
		C127.702,311.098,128.716,311.1,129.73,312.363z"/>
	<path fill="#F1F0F0" d="M93.138,289.711c6.142-30.71,35.809-32.11,56.847-44.408C138.757,269.528,110.049,272.234,93.138,289.711z"
		/>
	<path fill="#EEEDED" d="M192.58,187.469c-18.715,19.376-46.599,13.362-68.406,24.178
		C139.676,183.373,168.962,193.269,192.58,187.469z"/>
	<path fill="#F3F2F2" d="M126.309,288.581c-13.346,8.734-26.354,17.899-37.726,29.316c2.816-31.099,31.59-36.101,50.118-51.352
		c4.73,3.867-1.691,6.102,0.092,9.02c1.477,4.825-2.759,6.605-5.008,9.452C131.833,287.332,128.722,287.219,126.309,288.581z"/>
	<path fill="#F5F4F4" d="M123.742,309.556c-11.442,12.476-25.624,22.312-36.197,38.949c-2.47-12.246,1.091-20.345,7.406-27.688
		c9.784-11.376,22.898-18.944,33.607-29.268c0.824-2.813,2.778-4.181,5.484-3.136c2.273,0.878,2.778,3.508,1.952,5.388
		C133.255,300.032,131.686,307.327,123.742,309.556z"/>
	<path fill="#F0EFEF" d="M227.098,162.328c-5.504,3.803-11.703,4.706-18.221,4.529c-16.657-0.45-33.316-2.303-51.59,0.927
		c6.358-9.68,14.14-13.61,23.67-14.162c9.643-0.559,19.242,0.376,28.742,2.166C215.364,158.329,223.201,155.089,227.098,162.328z"/>
	<path fill="#F1F0F0" d="M160.734,228.508c-1.602,1.993-2.945,4.074-4.681,5.747c-5.522,5.32-12.732,7.657-19.505,10.793
		c-9.372,4.339-18.654,8.875-27.931,13.415c-2.534,1.24-5.342,3.681-7.68,1.036c-2.112-2.391,1.238-4.356,2.346-6.352
		c6.66-11.997,18.862-15.829,30.62-19.869c6.524-2.242,13.795-1.95,19.587-6.858C155.137,225.023,158.892,224.462,160.734,228.508z"
		/>
	<path fill="#494949" d="M93.425,371.328c6.093-13.204,16.644-22.955,26.031-33.607c1.926,0.659,1.996,2.324,2.14,3.949
		c-8.408,10.911-16.815,21.823-25.223,32.734C95.391,373.378,94.408,372.353,93.425,371.328z"/>
	<path fill="#515150" d="M123.742,309.556c4.201-4.659,8.195-9.447,10.065-15.614c0.477-1.573,1.621-3.675-0.538-4.258
		c-1.307-0.353-3.123,1.179-4.711,1.865c-0.749-0.989-1.499-1.978-2.248-2.967c1.972-1.615,3.944-3.23,5.917-4.845
		c3.812,0.992,4.654-4.441,8.289-3.831c-0.718,8.159-1.119,16.611-6.315,23.305c-3.32,4.277,1.878,7.305,0.302,10.935
		c-1.59-0.594-3.18-1.188-4.771-1.782c-1.014,0.001-2.028,0.001-3.042,0.002C125.706,311.428,124.724,310.492,123.742,309.556z"/>
	<path fill="#D8D6D6" d="M227.098,162.328c-4.797-4.848-12.236-2.666-17.399-6.54c7.094,1.515,15.789-2.652,20.903,5.889
		c-0.144,0.985-0.642,1.219-1.492,0.701l-1.005-0.064L227.098,162.328z"/>
	<path fill="#3C3D3D" d="M229.111,162.378c0.33-0.591,0.828-0.824,1.493-0.701c3.594-1.457,5.183-12.053,11.203-2.458
		c-3.358,1.714-6.715,3.427-10.073,5.141C230.859,163.7,229.985,163.039,229.111,162.378z"/>
	<path fill="#434444" d="M140.515,279.905c-2.91,0.959-2.22,9.707-8.289,3.831c2.189-2.724,4.378-5.448,6.567-8.172
		c0.88,0.05,1.759,0.101,2.639,0.151C141.126,277.112,140.82,278.508,140.515,279.905z"/>
	<path fill="#EDECEC" d="M541.685,494.332c-6.338,10.378-14.05,15.632-24.601,17.117c-14.51,2.042-29.088,0.899-43.627,1.418
		c-1.69,0.06-3.861,0.679-4.222-1.732c-0.286-1.911,1.292-2.925,2.937-3.908c4.285-2.561,8.563-5.247,13.608-5.705
		C504.038,499.864,522.449,499.616,541.685,494.332z"/>
	<path fill="#ECEBEB" d="M335.09,554.789c27.375-0.931,41.998,24.894,65.587,31.906C369.804,594.964,355.683,568.087,335.09,554.789
		z"/>
	<path fill="#E4E3E2" d="M435.118,530.993c6.667-1.879,13.25-1.332,20.022-0.109c14.921,2.696,29.846,5.675,47.723,3.88
		c-8.686,9.314-16.719,12.889-26.818,11.989c-13.171-1.173-25.822-4.962-38.72-7.502c-0.611-0.365-1.253-0.623-1.91-0.822
		c-2.664-0.805-7.245,1.645-7.492-3.237C427.678,530.369,433.04,533.048,435.118,530.993z"/>
	<path fill="#F0EFEF" d="M404.995,549.995c15.877,5.995,31.275,13.364,49.895,16.422c-10.269,8.008-20.135,8.397-29.972,4.474
		c-12.536-5-24.67-11.006-36.978-16.579c-2.336-1.54-7.363-1.12-4.63-6.354l0.052-0.028
		C390.889,545.314,398.35,543.384,404.995,549.995z"/>
	<path fill="#E8E7E6" d="M344.294,591.159c0.939,4.45-1.832,4.631-4.965,4.236c-7.109-0.895-13.84-2.677-19.374-7.679
		c-12.667-11.448-21.891-25.715-32.966-38.583c4.405-3.138,7.403-0.135,10.658,0.663c11.221,6.146,18.052,16.94,26.995,25.498
		C330.745,581.134,335.878,588.181,344.294,591.159z"/>
	<path fill="#EFEFEE" d="M428.652,541.298c16.139,4.803,32.19,9.987,49.442,11.622c-7.889,6.599-16.51,10.263-26.681,7.326
		c-13.921-4.021-27.708-8.507-41.553-12.794c-2.011-0.871-5.019,0.304-5.907-2.881c-0.019-4.269,3.071-4.777,6.255-5.182
		C416.505,538.609,422.865,537.197,428.652,541.298z"/>
	<path fill="#F2F2F1" d="M374.485,592.443c-5.537,1.532-11.18,0.897-16.795,0.824c-13.4-4.458-22.102-15.07-31.811-24.343
		c-5.298-5.059-10.458-10.263-14.695-16.698C337.968,556.758,351.935,581.452,374.485,592.443z"/>
	<path fill="#F3F2F2" d="M521.782,516.151c-10.005,15.352-14.078,15.841-72.076,9.392c5.816-8.361,10.161-9.36,34.533-8.068
		C496.59,518.13,508.94,518.486,521.782,516.151z"/>
	<path fill="#F1F0EF" d="M381.551,556.144c15.164,7.64,29.55,16.912,46.791,21.253c-15.576,12.438-35.14,1.556-69.185-23.575
		c4.329-3.45,8.979-1.111,13.291-1.328C375.28,554.217,379.482,552.52,381.551,556.144z"/>
	<path fill="#F3F3F2" d="M555.086,470.887c3.033,2.221-0.981,4.091-0.309,6.195c-7.626,9.923-18.088,14.158-30.201,15.414
		c-12.224,1.268-24.413,2.865-37.621,4.438c2.36-6.854,7.853-8.652,12.279-11.571c6.985-5.24,15.712-5.241,23.568-7.872
		C533.875,476.825,543.839,470.706,555.086,470.887z"/>
	<path fill="#E8E7E6" d="M296.791,544.078c15.638,1.074,31.315,1.775,46.894,3.407c6.214,0.651,11.641-2.925,17.738-1.738
		c3.707,0.721,7.828-1.178,11.22,1.729c-23.302,3.188-46.611,1.798-69.919,0.104C300.746,546.412,298.768,545.245,296.791,544.078z"
		/>
	<path fill="#6C6B6B" d="M523.621,479.924c-8.129,1.813-16.258,3.626-24.387,5.439c2.15-3.643,3.676-7.26-0.428-10.652
		c2.49-4.787,8.151-7.123,9.747-12.602c3.245,0.227,5.081,2.235,6.326,4.994c-0.218,2.203-1.826,3.475-3.287,4.834
		c-4.905,4.563,0.574,3.204,2.303,3.98C517.254,477.006,521.401,476.143,523.621,479.924z"/>
	<path fill="#747373" d="M428.652,541.298c-6.579-0.039-13.158-0.078-19.736-0.117c-1.879-1.542-4.871,0.607-6.446-1.945
		c5.005-1.487,10.01-2.975,15.014-4.462c0.995,0.265,2.181,1.306,2.884,0.795c1.055-0.768-0.336-1.725-0.563-2.631
		c2.819-1.626,4.968-4.858,8.937-3.732c2.125,0.596,4.25,1.192,6.375,1.787c-1.423,2.424-6.884,0.877-5.946,4.767
		c0.835,3.463,6.022,0.723,8.152,3.493C434.5,540.213,431.014,538.371,428.652,541.298z"/>
	<path fill="#747373" d="M405.402,545.784c1.486,0.556,2.972,1.112,4.458,1.669c-1.695,0.707-3.917,0.406-4.865,2.543
		c-7.047-2.404-14.374-1.875-21.633-2.065c-1.495-0.749-2.99-1.498-4.485-2.247c4.758-3.213,10.071-2.18,15.274-1.999
		C397.806,544.896,402.163,542.349,405.402,545.784z"/>
	<path fill="#747373" d="M381.551,556.144c-3.034-1.217-6.068-2.433-9.102-3.65c4.338,0.206,8.293-0.506,10.862-4.537
		c-1.212,4.125,2.785,4.456,4.63,6.354C385.792,554.854,383.158,553.709,381.551,556.144z"/>
	<path fill="#F1F1F0" d="M589.758,308.027c0.448-0.056,0.893-0.037,1.334,0.059c0.318,4.215,0.637,8.43,0.955,12.645
		c-1.448,10.989-8.686,18.546-15.72,26.136c-7.925,8.551-16.097,16.874-26.162,27.384c-0.309-12.275,3.714-19.347,8.955-25.939
		c8.852-11.137,19.699-20.704,26.386-33.546C586.923,312.519,588.34,310.273,589.758,308.027z"/>
	<path fill="#F2F1F1" d="M527.481,437.929c13.966-23.225,41.841-26.394,58.644-45.779
		C587.717,411.017,556.217,434.98,527.481,437.929z"/>
	<path fill="#E8E7E6" d="M518.129,455.528c6.205-8.291,15.037-12.602,24.278-16.543c12.669-5.402,25.765-10.056,37.284-18.628
		c-1.289,10.224-6.464,17.691-15.549,22.57c-10.382,5.576-21.655,8.893-32.671,12.86c-2.702,3.706-6.674,5.21-10.934,5.319
		C516.115,461.22,514.468,459.316,518.129,455.528z"/>
	<path fill="#E8E7E7" d="M537.77,417.836c9.833-27.035,38.764-32.258,52.313-53.307C597.529,383.455,571.652,399.907,537.77,417.836
		z"/>
	<path fill="#F0EFEF" d="M512.289,477.504c-3.047-1.144-5.589,2.967-8.866,0.807c1.445-5.921,7.698-7.485,10.735-11.904
		c0.983-2.938,3.446-3.834,6.116-4.444c5.685-3.163,12.182-2.32,18.233-3.684c10.779-2.394,20.841-6.623,31.371-12.786
		c-1.473,12.057-10.777,16.513-17.786,22.742C539.91,475.982,526.317,477.677,512.289,477.504z"/>
	<path fill="#ECEBEB" d="M584.703,280.168c5.511,10.281,2.578,20.034-1.854,29.694c-8.795,13.185-18.999,25.249-29.874,38.27
		c-3.014-9.675,0.727-16.8,5.066-23.524C567.413,310.079,578.14,296.379,584.703,280.168z"/>
	<path fill="#ECEAEA" d="M555.037,299.155c7.987-14.456,16.268-28.769,21.258-46.384c5.909,8.884,4.454,16.968,4.224,24.852
		c-8.014,15.732-17.387,30.627-27.832,46.015c-4.297-5.447-1.447-10.721-1.675-15.614
		C551.81,304.821,551.685,301.199,555.037,299.155z"/>
	<path fill="#F3F2F2" d="M548.208,384.708c3.685-8.02,10.343-13.502,16.643-19.233c9.665-8.79,19.518-17.375,27.64-28.234
		c1.611,10.227-0.979,18.94-8,26.489c-10.73,11.537-24.22,19.794-35.778,30.341C542.027,391.302,544.775,388.023,548.208,384.708z"
		/>
	<path fill="#6F6F6F" d="M555.037,299.155c-1.341,2.956-2.683,5.913-4.024,8.869c-1.548-2.192-3.249-0.031-4.869-0.171
		c-6.738-1.03-3.336-6.979-4.259-10.246c-4.967-17.577-9.304-35.316-17.011-51.99c5.826-6.222-1.585-15.333,4.684-21.458
		c4.122,5.269,2.283,11.529,2.542,17.317c0.336,7.498,3.977,0.436,5.605,1.621c1.148,2.848-1.063,6.554,2.26,8.847
		c3.382,2.977,2.392,7.06,2.734,10.805c0.276,3.015-0.688,6.551,3.359,7.977c0.74,2.269-0.129,5.023,2.066,6.853
		c4.395,4.847-3.252,12.887,4.469,16.851C553.084,296.173,552.807,298.313,555.037,299.155z"/>
	<path fill="#4E4E4E" d="M512.289,477.504c13.268-3.09,26.536-6.18,39.804-9.269c1.07,0.185,2.14,0.37,3.213,0.556
		c-0.058,0.701-0.132,1.4-0.22,2.097c-9.808,5.382-20.529,7.584-31.465,9.036C519.981,478.476,515.473,481.087,512.289,477.504z"/>
	<path fill="#757575" d="M548.208,384.708c0.338,3.112-4.599,6.509,0.505,9.363c-4.342,0.539-7.004,3.982-10.46,6.053
		c-0.342-11.641,8.583-21.074,7.822-32.816C548,372.958,544.596,379.263,548.208,384.708z"/>
	<path fill="#676766" d="M538.508,458.279c-5.975,1.94-11.95,3.88-17.926,5.82c-3.974-0.912-8.527-0.861-9.967-5.99
		c0.794-3.624,1.785-7.094,6.201-7.86c0.192,1.821-0.777,3.93,1.312,5.279c0.005,1.772-1.531,4.725,2.415,3.712
		c3.694-0.949,7.289-2.286,10.927-3.453C533.017,458.877,536.14,457.511,538.508,458.279z"/>
	<path fill="#313131" d="M585.053,262.723c0.84,3.425,1.68,6.85,2.52,10.275c-0.173,1.531-0.346,3.063-0.52,4.593
		c-1.235-0.013-2.469-0.025-3.697-0.038C583.584,272.569,581.397,267.312,585.053,262.723z"/>
	<path fill="#E7E5E5" d="M505.719,211.216c-5.277-8.824-6.153-18.634-7.003-28.614c-1.17-13.749-1.212-27.671-6.779-42.805
		c12.15,7.53,17.367,16.534,18.214,28.326c0.331,4.601,1.031,9.176,1.563,13.763c6.319,9.01,3.607,18.987,2.222,28.438
		C513.212,215.271,509.138,216.758,505.719,211.216z"/>
	<path fill="#E6E5E4" d="M514.422,166.122c0.884-2.353-1.092-9.567,5.042-3.278c7.064,7.244,9.856,16.308,9.052,26.266
		c-1.156,14.326-2.721,28.62-4.206,43.903c-7.51-2.729-5.741-10.247-9.618-13.87c-4.011-4.339-1.533-9.551-1.198-14.076
		C514.453,192.079,514.038,179.098,514.422,166.122z"/>
	<path fill="#EFEEEE" d="M470.264,126.041c27.581,15.597,19.253,43.89,23.425,67.892
		C474.477,175.467,482.062,147.425,470.264,126.041z"/>
	<path fill="#E9E8E8" d="M464.907,168.48c-6.841-18.43-10.284-38.061-20.923-56.248c9.25,0.462,12.932,7.322,18.461,11.159
		c8.204,17.451,10.717,36.439,15.486,55.696C470.987,177.809,469.138,171.654,464.907,168.48z"/>
	<path fill="#E3E2E1" d="M552.593,294.432c-1.506,1.263-1.603,4.376-4.218,3.977c-2.109-0.322-1.862-2.595-1.994-4.283
		c-0.441-5.621,0.18-11.133,1.743-16.545c5.966-15.929,13.547-31.306,16.168-48.542c6.932,5.74,8.953,14.022,6.112,24.449
		C566.452,267.993,558.25,280.661,552.593,294.432z"/>
	<path fill="#EFEEEE" d="M546.057,270.727c-1.281,1.506-1.379,4.521-3.981,4.254c-2.054-0.211-2.057-2.538-2.076-4.238
		c-0.068-6.266-0.033-12.532-0.036-18.799c4.651-15.497,9.858-30.863,11.405-47.505c6.459,7.45,10.103,15.722,7.312,25.504
		C554.776,243.625,550.293,257.141,546.057,270.727z"/>
	<path fill="#F1F0F0" d="M537.704,243.098c-0.992,3.255-1.983,6.51-3.32,10.897c-8.136-9.594-4.566-20.047-4.827-29.835
		c3.241-13.963,4.991-28.081,4.102-42.624c8.378,5.153,12.676,13.836,11.062,25.064
		C542.961,218.849,540.091,230.939,537.704,243.098z"/>
	<path fill="#3D3D3D" d="M514.422,166.122c3.873,17.654-0.225,35.349,0.27,53.021c-0.778,1.622-1.557,3.245-2.335,4.867
		c-2.98-3.441-5.959-6.882-8.939-10.322c0.767-0.824,1.535-1.648,2.302-2.471c4.475,3.926,5.765,2.369,5.694-2.976
		c-0.116-8.782,0.18-17.57,0.302-26.355C513.755,176.826,510.025,170.776,514.422,166.122z"/>
	<path fill="#F1F0EF" d="M418.252,139.846c-6.911-16.225-15.613-31.39-26.544-45.359c30.921,6.49,32.588,36.157,46.3,56.729
		c-4.777,2.7-6.708-1.356-9.603-1.768c-4.988,0.159-7.314-3.501-9.858-6.858C418.179,141.706,418.084,140.79,418.252,139.846z"/>
	<path fill="#F4F4F3" d="M362.242,91.115c4.163-3.608,8.429,0.904,12.624-0.159c15.164,7.156,22.275,21.428,30.632,34.613
		c3.197,5.045,6.522,10.009,9.788,15.01c-1.625,5.956-5.263,3.423-8.47,1.892c-6.418-3.065-10.973-8.386-15.782-13.378
		c-8.852-11.358-16.343-23.829-27.295-33.495C362.459,94.47,361.139,93.141,362.242,91.115z"/>
	<path fill="#EEEDED" d="M456.393,159.728c2.14,3.112,2.39,6.368-2.284,3.775c-5.903-3.276-9.785-8.987-12.847-15.315
		c-7.417-15.324-12.036-32.061-22.701-45.916c21.584,4.358,26.492,22.041,31.639,39.531
		C452.727,147.618,452.187,154.493,456.393,159.728z"/>
	<path fill="#666666" d="M392.435,126.906c5.081,4.353,8.546,10.472,14.87,13.48c2.677,1.274,5.21,4.39,7.982,0.194
		c0.988-0.245,1.975-0.489,2.964-0.734c0.001,0-0.25,0.086-0.25,0.086c0.66,3.077,3.895,5.633,1.871,9.253
		c-13.832-4.021-28.08-6.687-41.313-12.665c0.804-2.016,2.555-2.805,4.421-3.442c2.662-0.277,5.242-0.699,6.192-3.811
		C389.957,128.05,391.043,127.265,392.435,126.906z"/>
	<path fill="#3F3F3F" d="M419.872,149.185c-1.801-2.844-2.403-5.93-1.873-9.25c4.639,1.89,6.659,6.646,10.406,9.513
		c-0.879,0.668-1.757,1.336-2.636,2.004C423.804,150.696,421.838,149.94,419.872,149.185z"/>
	<path fill="#E9E8E8" d="M456.393,159.728c-6.088-4.583-5.576-11.447-6.193-17.923C453.434,147.374,455.041,153.507,456.393,159.728
		z"/>
	<path fill="#EBEAE9" d="M279.007,99.305c-0.217-3.833,2.258-4.853,5.395-5.075c6.824-0.484,13.661-0.421,19.786,3.056
		c15.131,8.589,27.927,20.213,41.778,31.506c-7.135,3.905-12.54-0.77-18.296-1.045c-6.878-0.882-12.273-4.917-17.492-8.874
		C300.345,111.418,288.743,106.859,279.007,99.305z"/>
	<path fill="#F4F3F2" d="M368.079,127.696c0.854,3.113,0.151,4.925-3.528,4.106c-7.029-1.564-13.184-4.693-18.734-9.406
		c-12.333-10.472-23.864-21.994-39.831-30.018c6.575-3.594,12.13-1.276,17.398-1.631c1.6-1.051,3.425-1.399,5.037-0.452
		C344.484,99.734,358.049,111.848,368.079,127.696z"/>
	<path fill="#EFEEED" d="M306.868,131.531c-18.345-7.934-34.731-19.84-56.046-25.614c9.397-6.345,17.45-4.759,25.364-4.156
		c17.551,4.07,31.456,14.45,44.759,25.87C318.356,136.522,311.247,129.102,306.868,131.531z"/>
	<path fill="#F3F3F2" d="M389.507,129.899c0.799,1.807,2.7,4.768,2.215,5.231c-2.841,2.714-5.467-0.892-8.356-0.959
		c-3.809,0.37-7.001-0.391-8.33-4.556c-1.478-1.435-2.956-2.869-4.434-4.304c-7.789-3.199-12.327-10.194-17.803-15.905
		c-5.984-6.24-13.745-10.744-18.19-18.469c6.293-6.323,12.529,0.088,18.794,0.083c3.934-1.417,5.812,1.777,7.994,3.813
		C372.458,105.151,383.35,115.638,389.507,129.899z"/>
	<path fill="#4B4B4B" d="M389.507,129.899c-11.939-13.048-20.873-28.888-36.104-38.879c-0.013-1.26-0.464-3.399,0.029-3.643
		c4.215-2.098,6.093,1.892,8.811,3.738c12.492,9.882,21.521,22.686,30.193,35.791C391.459,127.904,390.483,128.902,389.507,129.899z
		"/>
	<path fill="#474747" d="M320.945,127.631c-14.92-8.623-29.839-17.246-44.759-25.87c0.013-0.679,0.023-1.358,0.03-2.037
		c0.931-0.139,1.861-0.279,2.792-0.419c15.328,3.218,26.397,14.039,39.097,21.939c3.271,2.035,6.382,4.328,9.566,6.503
		c0.301,1.225,1.684,2.834,0.006,3.604C324.038,133.024,323.612,128.168,320.945,127.631z"/>
	<path fill="#4B4B4B" d="M334.609,90.938c14.573,8.761,25.135,21.723,35.993,34.374c-0.841,0.795-1.682,1.59-2.523,2.385
		c-8.469-8.012-16.906-16.058-25.419-24.024c-5.714-5.346-11.692-10.346-19.276-12.925C327.28,81.678,330.892,89.43,334.609,90.938z
		"/>
	<path fill="#4B4B4B" d="M375.036,129.615c2.777,1.519,5.553,3.037,8.33,4.556c-1.602,0.783-3.205,1.566-4.807,2.349
		c-4.794-0.2-9.587-0.399-14.381-0.599C367.501,133.31,372.643,133.83,375.036,129.615z"/>
	<path fill="#2D2C2C" d="M259.057,97.599c1.926-0.172,3.852-0.344,5.778-0.516c3.083,3.497,8.696-5.284,10.941,2.252
		C270.218,98.58,264.32,101.152,259.057,97.599z"/>
	<path fill="#E7E6E5" d="M291.193,140.461c-5.664,2.975-11.004,6.909-17.96,6.063C278.341,141.903,284.03,138.999,291.193,140.461z"
		/>
	<path fill="#424242" d="M274.109,543.621c0.798-0.78,1.595-1.56,2.393-2.339c1.333,0.276,2.666,0.551,3.998,0.827
		c2.032,2.365,7.11,3.976,2.004,8.106C279.706,548.017,276.908,545.819,274.109,543.621z"/>
	<path fill="#DEE1DC" d="M233.149,178.878c6.603-5.227,13.659-9.692,21.531-12.782c15.625,33.267,32.852,65.729,49.688,98.43
		c-5.43-17.987-13.519-34.898-20.898-52.087c-4.93-11.486-9.932-22.944-14.745-34.476c-2.114-5.063-5.526-10.41-1.137-16.093
		c3.526-5.669,9.477-5.612,15.077-6.385c4.618,1.925,5.502,6.392,6.713,10.406c8.05,26.667,16.877,53.101,24.466,79.9
		c2.344,8.276,6.139,15.987,8.216,24.306c-8.258,11.264-15.833,12.513-25.015,3.033c-9.075-9.369-20.075-17.033-26.484-28.857
		c0.351-5.986-2.476-10.742-5.646-15.535C254.039,212.303,242.92,196.019,233.149,178.878z"/>
	<path fill="#DFE1DC" d="M282.642,528.67c-6.538-0.021-12.067-2.736-17.225-6.444c-1.961-2.237-1.352-4.723-0.354-7
		c10.946-24.982,19.84-50.838,32.041-75.285c5.127-7.258,11.766-13.133,18.115-19.227c4.834-4.64,7.986-9.773,8.147-16.565
		c0.34-1.758,0.902-3.448,1.74-4.997c1.666-3.078,3.278-7.243,7.48-6.155c4.454,1.152,3.45,5.606,2.981,9.011
		c-0.821,5.962-0.188,12.013-1.275,17.937c-3.064,7.948-10.427,12.146-16.105,17.69c-6.149,6.005-10.248,12.315-9.634,21.114
		c-6.597,17.484-12.235,35.275-17.463,53.217C289.351,517.936,287.986,524.392,282.642,528.67z"/>
	<path fill="#DFE1DB" d="M198.9,477.272c-5.003-5.721-10.007-11.442-15.01-17.163c0.486-3.128,2.854-4.795,5.134-6.474
		c18.569-13.673,36.518-28.175,55.237-41.633c5.699-4.097,10.326-8.513,12.61-15.178c7.625-9.704,14.351-20.249,25.08-27.092
		c2.175-1.21,4.462-2.206,6.788-3.036c3.091-1.104,6.804-4.515,9.306-0.053c2.165,3.86-1.568,6.401-4.101,8.803
		c-1.534,1.455-3.424,2.536-4.555,4.403c-5.649,7.145-12.299,13.359-18.855,19.622c-4.585,4.38-7.197,9.312-7.103,15.65
		c-0.419,2.981-2.073,5.208-4.331,7.061C238.039,439.459,218.751,458.673,198.9,477.272z"/>
	<path fill="#DEE1DB" d="M222.641,498.576c-5.768-4.956-11.536-9.913-17.305-14.869c19.058-20.05,38.082-40.132,56.614-60.673
		c1.446-1.603,3.238-2.759,5.311-3.435c5.597-0.616,9.997-3.891,14.629-6.647c10.989-6.398,18.392-16.641,27.228-25.345
		c2.164-2.131,6.359-6.561,7.104-4.331c1.92,5.743,10.153,3.02,10.311,8.997c0.117,4.441-1.201,8.58-6.651,9.446
		c-5.678-0.895-10.049,1.36-14.01,5.305c-4.42,4.402-8.372,9.409-14.173,12.242c-7.971,4.374-14.418,10.419-19.768,17.725
		c-13.306,18.172-27.502,35.669-40.892,53.78C228.76,493.855,227.019,497.681,222.641,498.576z"/>
	<path fill="#DFE1DC" d="M366.214,149.092c8.927-0.465,17.649,0.367,25.917,4.082c-8.565,6.877-9.364,17.288-11.417,26.774
		c-6.226,28.781-13.089,57.41-19.898,86.052c-1.574,6.621-2.229,13.226-2.274,19.973c-1.721,3.157-4.228,4.383-7.738,3.161
		c-3.607-2.434-4.297-6.164-4.512-10.109c3.917-30.366,6.384-60.921,11.383-91.155c1.514-9.155,1.013-18.521,3.158-27.608
		C361.814,156.103,362.104,151.704,366.214,149.092z"/>
	<path fill="#DEE1DB" d="M398.484,155.401c6.259,0.737,12.37,1.861,17.136,6.521c3.181,3.754,1.21,7.478-0.26,11.047
		c-14.821,35.975-31.29,71.257-45.211,107.612c-0.788,2.057-2.233,3.634-4.25,4.634c-7.045,1.581-7.974-2.401-7.083-7.888
		c1.257-7.749,4.213-15.028,6.456-22.497c8.983-29.905,18.045-59.789,27.609-89.515
		C394.061,161.647,394.691,157.615,398.484,155.401z"/>
	<path fill="#DEE1DC" d="M288.964,153.204c9.427-5.067,20.335-3.013,30.138-6.271c4.681,22.349,5.926,45.173,9.074,67.735
		c2.26,16.195,3.549,32.565,6.033,48.768c0.583,3.806,2.098,7.999-3.426,9.672c-1.861,0.349-3.651,0.125-5.36-0.689
		c-6.585-6.428-7.106-15.271-8.797-23.454c-5.453-26.399-12.369-52.463-17.775-78.864
		C297.438,163.204,294.733,157.391,288.964,153.204z"/>
	<path fill="#DEE1DC" d="M331.921,146.901c6.447-0.012,12.895-0.025,19.342-0.037c2.743,12.343,1.813,24.957,0.806,37.214
		c-2.278,27.705-0.911,55.6-4.752,83.189c-2.079,4.675-0.867,10.303-4.163,14.643c-4.339,1.318-5.725-1.833-7.26-4.78
		c-5.132-35.263-3.947-70.946-6.864-106.368C328.377,162.842,326.661,154.316,331.921,146.901z"/>
	<path fill="#DFE1DC" d="M535.674,365.643c-2.161,7.013-0.706,14.731-4.193,21.485c-2.012,1.141-4.151,0.936-6.225,0.381
		c-30.571-8.182-61.564-14.523-92.481-21.239c-2.786-8.033,3.213-10.599,8.468-13.642c7.208-2.486,14.018,1.068,20.966,1.764
		c21.173,2.12,42.166,5.859,63.333,8.196C529.059,362.976,532.566,363.731,535.674,365.643z"/>
	<path fill="#DEE1DB" d="M151.688,393.618c-5.076-9.419-3.069-20.308-6.251-30.12c11.64-3.57,23.851-2.634,35.742-4.393
		c7.782-1.152,15.242-2.731,22.428-5.788c5.976,1.687,11.09,3.226,17.163-2.091c6.54-5.726,14.539-0.071,18.314,11.754
		c-2.471,7.224-9.33,7.143-14.941,8.379c-19.13,4.216-38.216,8.593-57.256,13.197C160.735,386.043,155.635,388.715,151.688,393.618z
		"/>
	<path fill="#DBD3C7" d="M535.674,365.643c-21.569-0.763-42.831-4.132-64.125-7.342c-9.955-1.501-20.024-2.243-30.042-3.329
		c-0.158-0.318-0.527-0.712-0.444-0.944c2.874-8.045,2.814-14.839-0.18-23.706c-0.208-0.615,0.304-1.285,0.885-1.793
		c11.616-2.962,23.383-4.738,35.414-4.426c3.133,6.534-3.591,8.196-5.998,11.96c-1.65,2.58-6.133,4.167-4.716,7.688
		c1.896,4.711,6.21,1.326,9.484,1.418c1.072,0.03,2.143,0.055,3.242,0.113c15.809,1.238,31.571,2.614,47.44,2.399
		c7.535-0.102,12.599,2.627,9.216,11.613C535.792,361.41,535.733,363.526,535.674,365.643z"/>
	<path fill="#DEE1DC" d="M160.374,417.186c-3.708-5.158-6.414-10.691-6.444-17.226c1.964-4.678,6.624-5.119,10.553-6.369
		c27.462-8.736,54.833-17.786,82.746-25.048c1.158-0.02,2.239,0.268,3.242,0.845c2.674,9.201-5.744,12.205-9.835,17.639
		c-23.275,10.185-46.99,19.337-70.316,29.422C167.216,417.792,163.897,419.876,160.374,417.186z"/>
	<path fill="#DAD3C7" d="M398.484,155.401c-11.183,36.69-22.378,73.376-33.532,110.075c-1.446,4.759-2.733,9.568-4.002,14.378
		c-1.351,5.118,2.436,3.866,5.078,3.997c0.191,0.537,0.381,1.075,0.572,1.613c-2.569,3.608-5.593,3.381-8.866,1.053
		c-2.401-4.259-2.82-8.849-1.726-13.478c8.809-37.245,17.808-74.446,26.449-111.73c1.318-5.685,3.222-9.236,9.673-8.134
		C394.436,153.381,396.937,153.032,398.484,155.401z"/>
	<path fill="#DBD3C6" d="M366.028,283.851c14.157-38.247,31.777-75.044,47.202-112.761c1.219-2.981,2.722-5.815,2.391-9.168
		c5.364,1.279,10.94,2.061,15.004,6.391c-0.494,11.538-7.865,20.235-12.673,29.915c-10.082,20.3-20.89,40.237-30.84,60.601
		c-0.52,2.993-1.149,5.953-2.816,8.566c-3.515,4.19-8.988,8.001-2.676,14.086c-4.382,4.482-9.222,6.543-15.152,2.93L366.028,283.851
		z"/>
	<path fill="#DFE1DC" d="M385.545,258.431c-0.502-0.855-1.656-2.118-1.413-2.506c17.58-28.103,30.401-58.727,46.493-87.612
		c7.304,2.016,12.835,7.243,19.352,10.683c-11.187,15.343-21.367,31.324-30.4,48.034c-7.1,10.559-16.874,18.627-25.752,27.525
		C391.606,256.778,389.041,258.72,385.545,258.431z"/>
	<path fill="#DBD3C7" d="M344.813,269.128c1.129-38.399,4.511-76.712,4.426-115.161c-0.005-2.366,1.318-4.735,2.024-7.102
		c5.084,0.074,10.323-0.9,14.952,2.226c-3.555,26.486-7.162,52.965-10.646,79.459c-2.247,17.088-4.316,34.199-6.465,51.299
		C339.406,279.584,344.804,273.278,344.813,269.128z"/>
	<path fill="#DEE1DC" d="M254.682,518.043c-7.876-3.081-14.941-7.526-21.514-12.798c12.445-24.069,29.718-45.104,43.094-68.588
		c1.73-3.038,4.322-3.368,7.341-2.105c3.547,1.775,6.22,4.295,7.095,8.339c-2.877,12.608-11.114,22.664-16.408,34.138
		C267.943,490.785,259.373,503.484,254.682,518.043z"/>
	<path fill="#DEE1DC" d="M177.343,449.455c-5.232-6.598-9.711-13.644-12.789-21.522c21.973-9.446,43.334-20.124,64.168-31.867
		c3.385-1.908,6.533-4.519,10.811-4.182c4.092,0.774,6.61,3.453,8.449,6.959c1.264,2.942,1.193,5.611-1.897,7.389
		C222.608,419.745,201.438,436.927,177.343,449.455z"/>
	<path fill="#DFE1DC" d="M527.227,400.035c0.395,6.655-2.045,12.256-6.375,17.156c-5.631,2.157-10.415-0.942-15.222-2.8
		c-18.466-7.137-35.923-16.856-55.308-21.634c-5.37-1.324-4.421-6.771-6.92-9.954c-2.059-3.707-5.879-6.686-4.876-11.667
		c1.987-2.699,4.463-1.605,6.729-0.684c20.86,8.477,42.78,13.658,64.089,20.728C515.66,393.274,522.644,394.317,527.227,400.035z"/>
	<path fill="#DEE1DC" d="M497.022,459.953c-4.24,5.053-6.703,11.599-12.734,15.146c-3.959,0.164-6.636-2.253-9.27-4.679
		c-16.756-15.432-32.85-31.59-50.491-46.055c-1.749-1.434-2.368-3.501-2.535-5.714c0.003-2.863,0.674-5.412,3.313-7.029
		c5.431-2.167,10.46-1.3,15.009,2.237c17.372,13.51,34.76,27,52.385,40.18C494.754,455.575,496.221,457.514,497.022,459.953z"/>
	<path fill="#DBD3C7" d="M331.921,146.901c1.362,43.584,2.83,87.163,6.507,130.632c-4.998,0.988-7.788-1.337-9.015-6.008
		c2.301-0.48,3.75-1.087,2.933-4.215c-5.746-22-5.681-44.796-8.934-67.148c-2.235-15.359-3.903-30.799-6.031-46.175
		c-0.383-2.767,0.705-4.817,1.721-7.055C323.375,146.923,327.648,146.912,331.921,146.901z"/>
	<path fill="#DEE1DC" d="M449.962,505.142c-6.549,3.404-11.991,8.848-19.459,10.561c-3.314-0.981-5.465-3.325-6.908-6.282
		c-9.815-20.12-20.732-39.673-30.723-59.711c0.425-4.634,3.053-7.883,6.627-10.539c6.243-3.184,8.093,2.012,10.521,5.703
		c10.724,16.306,21.762,32.414,31.738,49.195C444.143,498.081,447.64,501.152,449.962,505.142z"/>
	<path fill="#DEE1DC" d="M473.545,485.816c-3.471,6.085-10.195,8.362-15.034,12.846c-14.876-13.069-24.491-30.395-36.796-45.545
		c-2.913-3.587-5.872-7.158-8.566-10.919c-2.405-3.357-3.541-6.984-1.561-11.016c1.321-2.46,3.204-4.229,6-4.867
		c1.808-0.216,3.768-0.171,5.029,1.121c17.289,17.714,34.54,35.468,50.558,54.363C474.125,482.92,474.126,484.411,473.545,485.816z"
		/>
	<path fill="#DBD3C7" d="M288.964,153.204c6.482-0.74,9.507,2.138,10.931,8.588c7.626,34.549,15.617,69.017,23.531,103.502
		c0.472,2.056,1.376,4.013,2.079,6.015c-1.361,1.127-2.778,1.157-4.245,0.219c-8.576-12.663-10.377-27.793-15.043-41.855
		c-8.17-24.623-15.735-49.447-23.553-74.187C284.764,154.725,286.864,153.965,288.964,153.204z"/>
	<path fill="#DFE1DC" d="M319.109,537.19c-9.807-3.215-20.706-1.184-30.125-6.266c4.727-3.559,7.43-8.155,8.889-14.025
		c3.956-15.92,7.478-31.931,10.954-47.956c0.594-2.737,0.257-5.78,2.664-7.914c5.085-2.327,9.228-7.284,15.738-5.666
		c2.157,1.891,2.2,4.431,1.803,6.895C325.024,487.143,322.59,512.235,319.109,537.19z"/>
	<path fill="#DBD3C7" d="M267.588,161.871c1.228,17.575,11.665,31.795,17.576,47.655c6.674,17.908,14.738,35.296,21.964,53.005
		c1.012,2.481,5.411,5.924,0.931,8.006c-4.291,1.995-5.767-2.929-7.311-5.963c-6.138-12.058-12.055-24.229-18.198-36.284
		c-8.703-17.077-17.555-34.078-26.291-51.138c-1.774-3.464-3.596-7.008-1.578-11.054
		C258.471,163.125,262.848,161.944,267.588,161.871z"/>
	<path fill="#DEE1DC" d="M514.192,432.068c-1.237,7.727-6.629,13.207-10.54,19.488c-17.648-13.765-36.801-25.263-55.726-37.113
		c-3.496-2.189-8.114-3.105-9.769-7.695c0.147-4.761,2.944-7.892,6.484-10.573c3.551-2.106,6.796-0.834,9.961,0.968
		c16.867,9.602,34.34,18.044,51.54,27.011C509.629,425.97,512.97,427.944,514.192,432.068z"/>
	<path fill="#DEE1DC" d="M415.637,522.255c-5.14,3.715-10.681,6.36-17.181,6.456c-4.959-3.706-6.387-9.512-7.874-14.867
		c-4.48-16.127-8.972-32.22-15.709-47.604c0.869-7.474,2.457-14.379,11.982-14.878c3.05,0.301,5.178,1.537,6.121,4.809
		c5.299,18.398,14.194,35.372,21.153,53.114C415.744,513.4,418.756,517.52,415.637,522.255z"/>
	<path fill="#DBD3C7" d="M248.27,369.913c-24.713,7.849-49.428,15.693-74.138,23.551c-6.742,2.144-13.469,4.33-20.203,6.497
		c-0.746-2.115-1.493-4.229-2.24-6.343c-1.444-7.953,4.11-9.376,9.893-10.7c21.982-5.031,43.982-9.989,65.9-15.284
		c3.743-0.904,8.925-0.392,10.049-6.05c3.111-2.061,6.443-1.356,9.776-0.792C251.733,363.396,253.741,366.265,248.27,369.913z"/>
	<path fill="#DBD3C7" d="M527.227,400.035c-24.987-7.769-49.903-15.781-75.026-23.081c-4.516-1.312-7.277-7.249-13.025-4.739
		c-3.666,1.062-5.319-1.401-6.928-3.949c-0.216-1.014,0.069-1.883,0.782-2.623c11.614-2.692,22.369,2.232,33.046,4.848
		c21.837,5.35,44.382,8.089,65.405,16.636C531.23,391.815,530.364,396.299,527.227,400.035z"/>
	<path fill="#DAD2C6" d="M282.88,436.334c-2.948-1.264-3.617,0.195-5.207,2.767c-12.717,20.577-25.84,40.904-38.997,61.206
		c-1.294,1.996-3.646,3.306-5.508,4.936c-4.404-0.81-7.442-3.777-10.529-6.666c17.2-22.972,34.143-46.144,51.787-68.768
		c4.166-5.342,9.521-10.395,16.472-12.747C290.798,424.556,284.935,429.653,282.88,436.334z"/>
	<path fill="#DEE1DC" d="M351.26,537.287c-6.452-0.023-12.905-0.047-19.357-0.07c-5.729-8.834-3.25-18.711-2.877-28.052
		c0.438-10.973,2-21.907,1.974-32.95c-0.01-4.186,0.11-8.723,4.904-10.941c5.347-0.998,8.357,2.452,11.34,5.953
		c3.535,3.816,4.022,8.043,4.044,13.393c0.059,14.074,0.989,28.162,0.859,42.265C352.115,530.373,353.032,533.946,351.26,537.287z"
		/>
	<path fill="#DBD2C6" d="M177.343,449.455c2.585-5.734,8.526-7.105,13.192-10.122c18.039-11.667,35.999-23.462,54.249-34.788
		c2.837-1.76,1.657-3.22,1.62-5.069c3.743-2.57,7.741-3.83,12.266-2.397c-0.989,7.168-5.206,11.555-11.08,15.758
		c-21.501,15.383-42.508,31.457-63.701,47.272C181.126,456.915,178.211,453.814,177.343,449.455z"/>
	<path fill="#DFE1DC" d="M183.983,224.121c4.974-5.748,9.947-11.495,14.921-17.243c13.057,12.83,27.369,24.306,40.268,37.31
		c2.274,2.292,4.679,4.374,4.236,8.043c-1.464,5.074-4.75,8.338-9.786,9.865c-5.902,0.489-8.695-4.48-12.439-7.47
		C208.654,244.622,194.35,236.758,183.983,224.121z"/>
	<path fill="#DFE1DC" d="M205.33,200.431c6.476-5.66,12.953-11.319,19.429-16.979c9.308,14.152,20.035,27.257,30.108,40.846
		c2.294,3.095,4.857,6.123,5.058,10.286c-1.247,4.974-3.774,8.789-9.114,10.048c-3.974-0.057-6.75-2.545-8.91-5.297
		C230.861,225.27,217.353,213.552,205.33,200.431z"/>
	<path fill="#DEE0DB" d="M392.128,530.968c-9.449,4.999-20.342,3.013-30.158,6.237c-2.164-19.884-6.073-39.604-5.582-59.746
		c2.148-3.611,5.498-4.787,9.475-4.688c8.005,1.203,9.419,7.849,10.922,13.955c2.449,9.948,4.27,20.036,6.977,29.946
		C385.315,522.355,387.645,527.189,392.128,530.968z"/>
	<path fill="#DBD3C7" d="M338.238,466.519c-4.531,0.618-4.222,4.057-4.117,7.248c0.694,21.202-3.624,42.227-2.218,63.45
		c-4.265-0.009-8.53-0.017-12.794-0.027c-4.714-11.134,0.285-22.14,1.002-33.084c1.023-15.627,4.42-31.098,6.722-46.647
		c0.071-0.481-0.757-1.095-1.166-1.648c-1.162-4.85,1.892-6.3,5.728-7.119c3.534,1.93,4.727,5.868,7.346,8.591
		C339.539,460.41,340.157,463.535,338.238,466.519z"/>
	<path fill="#DFE1DC" d="M535.851,359.293c0.586-6.177-1.614-8.957-8.41-8.768c-14.893,0.414-29.822,0.596-44.623-1.948
		c-2.779-0.477-5.779,0.107-7.497-2.913c2.77-8.603,8.385-14.092,17.38-15.904c9.243,1.078,18.538,0.447,27.797,0.822
		c6.093,0.247,11.233-1.216,15.367-5.777C539.104,336.304,539.115,347.799,535.851,359.293z"/>
	<path fill="#DAD2C6" d="M268.177,421.086c-12.408,13.104-24.747,26.276-37.25,39.29c-8.007,8.335-14.292,18.595-25.591,23.331
		c-2.759-1.531-4.902-3.679-6.437-6.435c4.735-11.305,14.997-17.594,23.342-25.596c12.942-12.411,26.045-24.653,39.079-36.967
		C265.83,414.444,267.844,416.862,268.177,421.086z"/>
	<path fill="#DEE1DC" d="M164.553,256.213c3.075-7.88,7.56-14.921,12.789-21.521c17.852,9.009,34.35,20.166,50.52,31.856
		c-0.275,6.136-5.026,8.981-9.062,12.358c-3.885,2.392-6.963,1.048-10.623-1.276C194.443,268.91,179.924,261.662,164.553,256.213z"
		/>
	<path fill="#DBD3C6" d="M254.682,518.043c-3.151-4.439-0.277-8.053,1.641-11.775c11.002-21.355,22.019-42.702,33.031-64.052
		c3.128-2.272,6.365-3.92,10.264-1.801c-11.4,27.271-22.8,54.541-34.2,81.812C261.594,521.46,257.741,520.769,254.682,518.043z"/>
	<path fill="#DAD2C6" d="M413.228,431.701c-1.767,4.242,0.107,7.454,2.833,10.535c14.756,16.68,25.938,36.177,41.229,52.451
		c0.852,0.907,0.835,2.631,1.222,3.975c-2.85,2.16-5.7,4.319-8.55,6.479c-4.515-0.223-6.62-3.392-8.772-6.803
		c-11.682-18.518-23.581-36.9-35.125-55.503c-1.705-2.747-3.212-3.262-5.847-2.277C399.79,430.606,406.198,430.698,413.228,431.701z
		"/>
	<path fill="#DBD3C6" d="M239.978,393.445c-20.148,10.361-40.288,20.736-60.448,31.071c-4.684,2.401-9.197,5.727-14.975,3.417
		c-2.711-3.07-3.445-6.909-4.182-10.746c26.478-10.721,52.955-21.442,79.432-32.163C242.241,387.781,242.2,390.59,239.978,393.445z"
		/>
	<path fill="#DAD2C6" d="M514.192,432.068c-21.42-11.622-42.817-23.284-64.312-34.765c-1.323-0.707-3.412,0.022-5.145,0.083
		c-2.776-5.58-3.03-11.086,0.477-16.484c3.96,14.103,18.385,11.534,27.758,16.551c15.143,8.106,31.839,13.308,47.881,19.736
		C520.523,422.996,518.892,428.219,514.192,432.068z"/>
	<path fill="#DAD2C6" d="M473.545,485.816c-17.261-18.913-34.501-37.847-51.851-56.679c-0.824-0.894-2.626-0.887-3.973-1.299
		c-0.508-4.797,1.453-7.849,6.274-8.882c8.541,8.227,16.962,16.582,25.652,24.649c11.436,10.617,23.083,21.006,34.64,31.494
		C481.509,479.475,477.955,483.075,473.545,485.816z"/>
	<path fill="#DBD2C6" d="M438.947,405.852c18.995,12.128,37.962,24.298,57.007,36.346c3.67,2.322,7.406,4.359,7.697,9.357
		c-2.208,2.801-4.417,5.601-6.627,8.399c-18.46-13.822-37.175-27.32-55.208-41.676c-4.901-3.902-9.364-6.018-15.34-5.413
		C428.081,405.99,433.73,406.305,438.947,405.852z"/>
	<path fill="#DEE1DC" d="M458.532,185.46c4.795,4.537,11.574,6.763,15.011,12.882c0.704,7.666-6.39,10.357-10.01,15.131
		c-7.6,10.024-16.023,19.415-26.44,26.753c-6.417-1.342-10.14-5.48-12.001-11.555C434.689,213.078,445.601,198.487,458.532,185.46z"
		/>
	<path fill="#DFE1DC" d="M484.328,209.014c5.945,3.63,8.488,10.101,12.687,15.189c-1.618,5.639-6.534,8.229-10.833,11.143
		c-10.743,7.283-19.65,17.222-32.008,22.178c-6.197-1.624-10.164-5.498-11.806-11.713
		C456.237,233.421,467.082,217.567,484.328,209.014z"/>
	<path fill="#DAD2C6" d="M415.637,522.255c-6.119-19.238-14.387-37.655-23.115-55.753c-2.107-4.368,1.628-11.181-5.403-13.236
		c0.6-4.059,2.641-5.898,6.828-4.436c11.783,17.302,19.931,36.562,29.658,54.972c2.141,4.052,4.592,7.94,6.899,11.902
		C426.188,519.337,421.203,521.455,415.637,522.255z"/>
	<path fill="#DBD3C7" d="M313.063,461.961c-4.624,20.392-9.283,40.776-13.848,61.181c-1.249,5.582-3.978,8.92-10.23,7.781
		c-2.115-0.75-4.229-1.501-6.342-2.252c8.341-23.685,13.646-48.388,23.939-71.418C309.945,457.165,312.666,457.963,313.063,461.961z
		"/>
	<path fill="#DEE1DC" d="M153.917,284.166c0.066-6.527,2.746-12.071,6.477-17.219c3.011-2.408,6.151-1.151,9.056-0.004
		c10.871,4.293,21.845,8.333,32.445,13.31c4.716,2.214,7.844,4.899,5.625,10.623c-2.208,4.92-5.408,8.758-10.977,9.989
		C182.614,294.604,166.355,294.258,153.917,284.166z"/>
	<path fill="#DFE1DC" d="M505.648,236.968c5.069,4.792,7.766,11.076,10.78,17.159c-13.733,8.405-28.026,15.755-42.593,22.609
		c-6.615-1.27-10.532-5.328-12.153-11.76C474.086,252.117,487.648,241.059,505.648,236.968z"/>
	<path fill="#DBD2C6" d="M259.021,234.801c-10.035-13.618-20.118-27.2-30.066-40.88c-2.238-3.078-5.118-6.058-4.196-10.471
		c2.892-1.35,4.791-4.521,8.391-4.57c7.153,4.123,9.811,11.874,14.2,18.129c8.095,11.533,15.355,23.648,23.109,35.425
		c2.502,3.8,4.042,7.439,1.123,11.642C265.65,243.348,262.518,238.828,259.021,234.801z"/>
	<path fill="#DEE1DC" d="M145.413,350.717c-0.021-6.46-0.042-12.92-0.063-19.38c12.988,0.292,25.949-3.857,38.973-0.248
		c7.012,5.047,15.015,9.291,15.909,19.372c-0.144,0.326-0.268,0.908-0.447,0.925C181.639,353.12,163.462,356.867,145.413,350.717z"
		/>
	<path fill="#DAD3C6" d="M392.128,530.968c-5.098,0.358-8.1-0.817-9.36-6.938c-2.391-11.62-6.155-22.926-8.297-34.68
		c-0.962-5.278-0.637-12.526-8.356-14.399c1.423-5.629,5.048-8.471,10.843-8.565c11.294,19.351,13.407,41.869,21.499,62.325
		C396.347,529.463,394.237,530.215,392.128,530.968z"/>
	<path fill="#DBD2C6" d="M205.33,200.431c13.573,6.912,22.151,19.226,32.044,30.036c4.286,4.683,8.005,9.826,13.548,13.174
		c-0.407,5.438-3.44,8.303-8.753,8.935c-7.112-10.243-16.737-18.014-25.887-26.243c-6.51-5.855-14.492-10.369-17.378-19.453
		C200.431,204.116,202.582,201.975,205.33,200.431z"/>
	<path fill="#DBD3C7" d="M357.657,476.978c1.996,15.636,3.937,31.279,6.023,46.902c0.62,4.646,0.916,9.145-1.71,13.325
		c-3.57,0.026-7.14,0.054-10.71,0.081c-2.379-3.825-2.624-8.135-2.07-12.333c2.012-15.244-3.731-30.515,0.284-45.826
		c0.434-1.655-2.907-4.299-4.497-6.484C350.49,470.326,354.152,473.422,357.657,476.978z"/>
	<path fill="#DFE2DC" d="M520.819,264.765c3.24,6.084,6.869,12.04,6.389,19.352c-4.3,6.851-12.365,6.256-18.616,9.194
		c-4.135,1.944-8.536,3.578-12.997,4.874c-8.604-2.267-13.959-7.882-16.671-16.212c9.146-7.174,21.054-8.083,30.995-13.571
		C513.188,266.598,517.041,265.556,520.819,264.765z"/>
	<path fill="#DBD2C6" d="M227.172,267.682c-14.823-9.368-29.622-18.776-44.496-28.062c-2.142-1.337-4.264-2.51-5.332-4.928
		c0.23-4.769,4.897-6.752,6.638-10.572c15.646,10.181,30.11,21.939,44.592,33.654c1.702,1.377,3.118,2.751,5.305,3.082
		C233.687,265.14,231.399,267.364,227.172,267.682z"/>
	<path fill="#DAD2C6" d="M205.305,290.168c-0.102-2.358,2.481-4.691-2.219-6.568c-14.188-5.665-27.985-12.307-42.693-16.653
		c0.704-3.843,1.451-7.669,4.16-10.733c3.475-2.428,6.72-1.293,9.915,0.639c12.411,7.504,27.014,11.063,38.038,21.158
		c0.859,0.786,3.335-0.193,5.059-0.352C217.512,285.782,213.448,289.973,205.305,290.168z"/>
	<path fill="#DBD3C7" d="M145.413,350.717c14.777-0.966,29.852,2.316,44.289-2.318c3.595-1.154,6.153,7.161,9.2,0.267
		c4.815-0.57,7.01,1.437,6.251,6.352c-10.695,8.528-23.97,7.069-36.146,7.986c-7.658,0.577-15.707,5.547-23.571,0.493
		C145.429,359.238,145.421,354.977,145.413,350.717z"/>
	<path fill="#DBD2C6" d="M484.328,209.014c-14.359,11.515-25.293,26.835-40.977,36.877c-4.509,0.095-6.704-2.137-6.659-6.622
		c12.284-13.643,24.567-27.285,36.851-40.928C477.971,201.059,481.49,204.693,484.328,209.014z"/>
	<path fill="#DBD2C6" d="M505.648,236.968c-15.309,8.05-29.611,17.627-43.11,28.423c-5.383-0.539-8.378-3.438-8.791-8.891
		c14.424-10.766,28.847-21.532,43.27-32.297C499.349,228.826,505.516,230.856,505.648,236.968z"/>
	<path fill="#DAD2C6" d="M458.532,185.46c-7.445,13.317-17.587,24.65-26.922,36.575c-1.743,2.227-3.581,4.379-5.376,6.565
		c-3.397,1.114-6.214,0.245-8.485-2.484c6.545-14.573,15.838-27.489,24.532-40.772c1.942-2.967,3.323-6.413,7.695-6.348
		C452.828,181.15,455.68,183.305,458.532,185.46z"/>
	<path fill="#DEE0DB" d="M145.394,322.773c2.555-10.657,1.405-22.039,6.301-32.238c6.669,8.872,17.493,8.324,26.587,11.673
		c3.862,1.422,8.758,1.252,9.369,6.981c-1.317,7.11-6.201,10.932-12.429,13.523C165.29,324.927,155.337,320.176,145.394,322.773z"/>
	<path fill="#DBD3C7" d="M520.819,264.765c-5.422,7.658-15.059,6.924-22.323,11.053c-5.748,3.267-12.545,4.688-18.877,6.929
		c-4.208-0.384-6.53-2.595-6.686-6.903c13.869-8.5,27.357-17.764,43.496-21.717C519.28,257.1,519.761,261.052,520.819,264.765z"/>
	<path fill="#DFE1DC" d="M531.507,296.99c3.432,6.785,2.033,14.502,4.156,21.54c-11.477,5.396-23.916,5.52-36.171,6.612
		c-0.901-1.119-1.861-2.761-0.941-3.771c5.413-5.941,3.599-12.556,2.176-19.193C510.838,299.567,521.182,298.335,531.507,296.99z"/>
	<path fill="#DAD2C6" d="M186.027,309.659c-7.683-7.25-18.198-6.956-27.445-9.714c-5.794-1.728-7.368-4.221-6.887-9.41
		c0.74-2.124,1.48-4.247,2.221-6.37c14.066,5.193,29.057,7.747,42.438,14.89C196.721,306.299,193.09,309.651,186.027,309.659z"/>
	<path fill="#DBD3C7" d="M499,322.143c7.688,2.306,14.612-2.539,22.26-2.436c4.584,0.061,9.541-1.179,14.403-1.177
		c0.066,2.093,0.133,4.186,0.201,6.278c0.462,5.865-1.235,9.446-8.137,8.731c-12.441-1.289-25.207,2.458-37.438-2.363
		C490.538,325.604,493.659,322.803,499,322.143z"/>
	<path fill="#DBD3C7" d="M531.507,296.99c-8.166,4.45-16.558,7.858-26.125,5.299c-2.123-0.568-3.353,0.346-4.35,1.997
		c-4.157-0.476-6.499-2.693-6.69-6.974c9.741-7.423,22.027-8.505,32.866-13.194C531.261,287.533,531.539,292.21,531.507,296.99z"/>
	<path fill="#DAD2C6" d="M145.394,322.773c3.346-4.743,8.213-5.427,13.052-3.736c5.533,1.933,11.057,1.437,16.632,1.521
		c3.975,3.602,9.523,6.155,8.653,12.985c-4.785-3.71-9.611-0.148-14.402-0.227c-8.001-0.132-16.28,2.019-23.979-1.979
		C145.365,328.482,145.379,325.628,145.394,322.773z"/>
	<path fill="#373737" d="M510.616,458.109c3.322,1.997,6.644,3.993,9.967,5.99c-2.141,0.769-4.283,1.539-6.424,2.308
		c-3.43,0.605-3.924-2.621-5.605-4.297C509.241,460.776,509.928,459.443,510.616,458.109z"/>
	<path fill="#3F3F3F" d="M405.402,545.784c-3.888,0.036-8.088,1.745-11.251-2.1c2.773-1.483,5.546-2.965,8.319-4.448
		c2.148,0.648,4.297,1.297,6.446,1.945C406.276,541.594,404.728,542.841,405.402,545.784z"/>
	<path fill="#454545" d="M419.806,532.938c1.871,1.069,5.087-1.124,5.92,2.36c0.336,1.406-0.126,2.942-1.606,3.264
		c-3.198,0.695-6.279,0.707-6.635-3.788C418.258,534.162,419.032,533.55,419.806,532.938z"/>
	<path fill="#535353" d="M183.731,333.543c-1.961-4.944-9.281-6.317-8.653-12.986c4.452-2.826,7.807-6.754,10.949-10.898
		c4.056-2.938,7.619-6.355,10.327-10.604c3.692-2.248,6.462-5.426,8.951-8.887c4.778-3.493,8.769-7.757,12.261-12.509
		c3.201-3.326,6.403-6.651,9.605-9.977c2.236-2.275,4.472-4.551,6.707-6.826c2.763-2.76,5.526-5.52,8.29-8.28
		c2.918-2.979,5.836-5.957,8.754-8.936c3.958-1.793,5.478-5.82,8.098-8.839c5.931,0.729,7.556,7.29,12.561,9.274
		c7.633,7.901,15.182,15.886,22.92,23.683c11.446,11.533,11.504,11.476,26.758,3.77c1.415-0.073,2.83-0.146,4.245-0.219
		c1.302,0.072,2.605,0.144,3.908,0.216c3.005,2.003,6.01,4.006,9.015,6.008c1.38,1.575,2.76,3.15,4.14,4.726
		c-1.547,8.937-7.889,6.692-12.99,4.867c-5.113-1.829-9.612-1.903-14.341,0.507c-6.457,3.291-12.748,6.324-19.547,0.147
		c-2.501-2.273-5.389-0.062-7.49,2.014c-15.693,15.503-31.202,31.191-46.853,46.735c-4.405,4.374-3.153,7.713,0.52,11.809
		c2.971,3.313,8.69,6.369,3.841,12.345c-2.569,1.718-5.086,3.92-8.176,0.9c-2.147-2.361-4.437-4.61-6.411-7.109
		c-3.827-4.842-7.463-4.763-10.873,0.26c-4.963,7.309-9.953,6.022-15.093,0.284c-1.369-2.82-3.483-4.909-6.251-6.352
		C194.559,342.908,189.43,337.94,183.731,333.543z"/>
	<path fill="#DDDAD1" d="M245.706,360.682c2.555-7.611-4.597-9.55-8.178-13.252c-3.581-3.701-4.947-5.988-0.554-10.302
		c17.279-16.968,34.301-34.203,51.143-51.605c3.768-3.894,6.597-5.265,10.079-0.289c3.453,4.934,6.667,5.294,12.242,1.958
		c6.256-3.743,13.26-8.532,21.407-1.533c2.302,1.978,8.49,2.076,10.722-3.4c0.886-4.353-1.657-9.293,2.245-13.13
		c0.965,3.76-2.604,9.334,4.29,10.721c-0.344,3.206,0.822,6.047,2.139,8.851c-3.412,6.853-10.625,6.475-16.488,8.46
		c-12.196,4.13-14.203,6.405-15.08,18.824c-0.05,0.711,0.116,1.488-0.118,2.129c-7.494,20.586,1.403,37.151,12.868,53.162
		c2.136,2.983,3.922,6.256,8.279,5.366c4.037-0.825,5.647-4.138,6.582-7.684c2.234-8.464-0.838-16.204-3.689-23.891
		c-3.738-10.081-2.058-19.36,4.62-24.114c7.403-5.27,22.208-5.01,29.009,0.546c10.243,8.369,19.263,18.027,28.677,27.262
		c8.741,9.39,18.349,17.949,26.946,27.472c7.829,8.672,8.176,17.267,1.501,23.686c-6.64,6.385-14.628,5.757-23.566-1.853
		c-0.967-1.053-1.808,0.739-0.849-0.323c0.106-0.117,0.341,0.063,0.774,0.466c4.311,4.009,7.792,8.346,6.694,14.838
		c-1.454,8.592-8.231,14.033-18.083,14.392c-2.068-0.577-3.928-1.593-5.668-2.821c-2.618-1.849-4.691-4.291-6.892-6.346
		c0.122,0.318,0.495,0.676,0.872,1c5.575,4.798,8.304,10.483,5.64,17.881c-8.404,12.243-15.129,13.1-27.032,3.454
		c7.936,8.699,8.79,16.832,2.465,23.474c-6.047,6.349-13.991,6.297-22.884-0.304c-2.561-1.901-5.471-3.372-7.567-5.877
		c-4.92-0.657-5.523-4.546-6.246-8.345c-1.725-2.869,0.485-4.671,1.912-6.558c9.074-11.997,9.096-11.981-1.899-21.322
		c-0.129-8.954-0.704-17.917,0.961-27.082c-4.809,2.997-6.626,7.272-7.574,12.068c-4.543,0.088-6.949-1.851-6.32-6.666
		c5.734-0.476,3.76-5.863,6.177-8.404c-4.018-3.777-5.715,2.442-8.978,0.98c-2.548-2.411,1.916-5.108-0.396-8.137
		c-11.094,10.127-19.359,23.345-32.967,30.654c-1.348-7.006,4.787-9.534,8.381-13.277c13.172-13.716,12.938-15.593-4.274-22.884
		c1.199-5.544,9.637-5.027,9.753-12.665c-5.032,2.046-9.659,3.927-14.286,5.808c-1.33-1.21-1.89-2.883-2.736-4.401
		c-4.583-8.216-8.082-9.091-15.834-4.119c-4.039,2.591-7.306,6.653-12.694,6.681c-0.989-0.105-1.977-0.211-2.966-0.317
		C251.847,365.605,247.681,363.448,245.706,360.682z"/>
	<path fill="#525252" d="M319.089,399.995c2.107,2.222,4.213,4.444,6.32,6.666c0.448,7.167-3.686,11.842-8.495,16.38
		c-5.941,5.606-11.546,11.566-17.297,17.373c-3.329,1.129-6.622,2.458-10.264,1.801c-2.157-1.961-4.315-3.921-6.473-5.882
		c-3.37-8.939,4.035-13.394,8.019-19.272c5.174-4.772,10.127-9.819,15.6-14.217C310.001,400.031,313.73,395.679,319.089,399.995z"/>
	<path fill="#525252" d="M332.022,421.674c13.91,3.598,16.062,9.929,6.846,20.063c-2.332,2.564-4.575,5.21-6.859,7.818
		c-2.75,1.442-4.863,3.528-6.343,6.258c-3.911,2.645-7.465,6.021-12.604,6.149c-2.161-1.57-4.321-3.139-6.482-4.709
		c-2.445-6.033-0.746-10.995,3.848-15.283C317.651,435.231,324.827,428.442,332.022,421.674z"/>
	<path fill="#515251" d="M251.236,370.231c3.574-2.708,7.297-5.242,10.683-8.168c4.161-3.596,8.562-6.894,14.125-4.145
		c5.624,2.779,7.63,7.913,6.455,14.152c-7.943,8.337-15.886,16.674-23.829,25.01c-3.861,1.964-7.785,3.608-12.267,2.396
		c-2.142-2.01-4.284-4.02-6.426-6.031c-0.058-2.808-0.115-5.615-0.173-8.422C243.193,379.766,249.805,377,251.236,370.231z"/>
	<path fill="#525252" d="M287.033,378.926c6.454-1.893,12.013-0.844,15.525,5.38c3.866,6.851-0.764,11.222-5.008,15.611
		c-4.882,5.05-9.75,10.113-14.624,15.171c-4.447,3.154-8.594,7.043-14.749,5.998c-2.286-2.126-4.571-4.252-6.856-6.378
		c-1.275-5.769,0.664-10.34,4.808-14.426C273.222,393.29,280.078,386.058,287.033,378.926z"/>
	<path fill="#535353" d="M404.549,351.285c-9.542-9.121-19.064-18.264-28.635-27.354c-4.583-4.352-21.761-5.808-26.576-0.994
		c-5.776,5.775-7.312,12.973-3.13,21.305c4.18,8.327,6.268,17.472,3.81,27.035c-1.38,5.369-4.453,9.027-10.01,9.803
		c-5.349,0.747-7.356-3.393-9.312-7.306c-1.117-2.236-1.712-5.036-3.429-6.623c-16.584-15.325-12.757-34.525-11.034-53.651
		c0.897-9.959,4.96-15.697,14.751-18.17c6.856-1.732,14.05-2.782,20.258-6.631c2.717,0.917,4.497-0.949,6.49-2.184
		c3.256,0.73,6.131-0.125,8.733-2.106c5.264-0.661,10.559-1.218,15.073-4.432c5.87-7.127,11.017-2.505,15.139,1.677
		c9.198,9.333,18.557,18.501,27.851,27.735c6.227,6.187,14.052,10.92,17.272,19.724c11.01,12.472,11.01,12.472-0.294,25.858
		c-3.304,3.177-8.536,4.823-8.478,10.672c-0.117,0.709-0.15,1.422-0.098,2.138c-7.086,1.12-11.525-3.228-16.268-7.448
		C412.915,356.999,410.676,351.47,404.549,351.285z"/>
	<path fill="#DEDCD5" d="M441.801,329.114c-14.585-14.449-29.208-28.86-43.733-43.369c-4.643-4.638-9.211-9.015-16.529-5.767
		c-2.327-0.848-7.455,0.761-6.725-1.733c1.359-4.637,1.919-11.421,9.43-11.641c5.329,0.563,9.502-1.273,13.199-5.275
		c5.303-5.741,10.976-11.148,16.586-16.604c4.964-4.828,9.643-5.299,14.647,0.06c18.696,20.02,38.648,38.802,57.75,58.422
		c2.917,2.996,7.197,6.312,4.785,10.887c-2.801,5.311-5.793,11.539-13.755,10.744c-4.444,1.909-8.718,3.294-13.931,2.483
		c-4.506-0.701-9.651-1.642-13.506,3.421C447.221,334.417,444.934,328.036,441.801,329.114z"/>
	<path fill="#4B4B4B" d="M477.456,324.838c14.426-12.398,14.514-12.483,1.3-25.978c-17.169-17.534-34.711-34.709-51.611-52.496
		c-4.665-4.91-7.228-3.705-11.025,0.321c-6.341,6.725-13.507,12.73-19.373,19.826c-4.776,5.778-8.303,4.7-12.503,0.093
		c-2.633-3.213,0.847-5.452,1.301-8.173c11.969-9.541,22.933-20.085,32.204-32.315c3.337-0.907,5.944,0.677,8.486,2.484
		c2.539,4.484,6.327,7.745,10.458,10.67c1.581,2.849,3.799,5.058,6.659,6.622c2.767,4.221,6.071,7.914,10.396,10.608
		c2.309,3.578,5.213,6.568,8.791,8.891c2.741,4.204,6.251,7.644,10.395,10.453c2.229,2.301,4.458,4.602,6.686,6.903
		c4.313,5.456,9.005,10.529,14.722,14.565c1.454,3.069,3.928,5.159,6.69,6.974c9.631,7.125,3.337,12.439-2.031,17.857
		c-3.444,2.49-6.62,5.239-8.711,9.033c-5.722,4.073-10.649,8.968-14.968,14.49c-3.448,2.048-5.832,6.86-11.049,1.276
		c-5.47-5.854-0.098-7.722,2.486-10.711C470.162,332.293,473.876,328.623,477.456,324.838z"/>
	<path fill="#474747" d="M404.549,351.285c3.315-4.861,5.538-0.772,7.432,1.227c6.066,6.403,12.311,12.443,20.949,15.269
		c2.082,1.478,4.163,2.955,6.245,4.433c2.012,2.895,4.024,5.791,6.036,8.687c0.707,5.521,1.68,11.048-0.477,16.485
		c-1.929,2.822-3.858,5.644-5.788,8.465c-4.158,2.338-8.315,4.675-12.472,7.013c-2.594,1.311-2.472,3.727-2.479,6.091
		c-2.092,2.961-4.183,5.922-6.275,8.882c-1.497,1.287-2.995,2.574-4.493,3.862c-4.485,2.735-12.146,0.806-13.01,8.858
		c-2.09,2.757-4.18,5.514-6.271,8.271c-2.276,1.479-4.552,2.958-6.828,4.437c-8.971,0.049-7.235,8.39-10.162,13.12
		c-3.615,2.855-7.229,5.711-10.843,8.565c-2.819,0.675-5.638,1.351-8.458,2.026c-4.227-1.445-8.454-2.89-12.68-4.335
		c-2.246-2.041-4.492-4.083-6.738-6.124c-2.116-2.878-2.382-5.752,0.017-8.62c5.313-1.813,7.567,2.718,10.644,5.293
		c6.15,5.147,12.078,5.574,17.831-0.395c5.851-6.07,6.306-12.208,0.323-18.689c-2.871-3.111-7.109-5.402-7.463-12.101
		c10.325,9.029,20.115,21.873,32.497,4.48c1.801-2.42,0.744-5.238,1.085-7.86c0.469-3.602,2.338-4.594,5.604-3.103
		c7.955,0.747,12.827-3.532,15.911-10.191c3.219-6.95-1.299-11.314-5.616-15.829c-2.504-2.618-6.192-4.601-7.083-10.392
		c6.34,1.669,8.693,6.309,12.02,9.423c6.524,6.107,12.678,5.545,18.809-0.35c6.104-5.869,5.669-12.117,0.193-17.899
		C423.697,370.454,414.054,360.936,404.549,351.285z"/>
	<path fill="#D6D3CB" d="M220.295,325.5c-1.332,5.294-4.322,9.486-10.016,9.305c-6.162-0.196-9.934-4.4-9.391-10.611
		c0.485-5.551,4.407-9.271,10.109-8.777C216.486,315.893,219.685,319.748,220.295,325.5z"/>
	<path fill="#656666" d="M398.777,425.524c-7.528,0.422-2.042,8.784-6.689,10.963c2.521-9.342-4.349-14.023-9.645-19.505
		c-1.332-1.379-3.96-2.744-1.348-4.943c1.729-1.455,3.167,0.339,4.421,1.466C389.953,417.493,394.359,421.515,398.777,425.524z"/>
	<path fill="#4F4F4F" d="M470.248,312.648c-0.755,8.763-6.91,11.567-11.753,11.217c-3.778-0.273-8.273-5.557-7.422-11.149
		c0.835-5.487,4.721-8.852,10.385-8.372C467.076,304.82,470.095,308.48,470.248,312.648z"/>
</g>
</svg>
