
<svg id="Capa_1" enable-background="new 0 0 512 512" height="512" viewBox="0 0 512 512" width="512"  xmlns="http://www.w3.org/2000/svg" xmlns:xlink="http://www.w3.org/1999/xlink"><g><path d="m346 242h-15l-30 15h-45-45l-30-15h-15c-41.353 0-75 33.647-75 75v60h165 165v-60c0-41.353-33.647-75-75-75z" fill="#979fef"/><path d="m421 317c0-41.353-33.647-75-75-75h-15l-30 15h-45v120h165z" fill="#6b77e8"/><path d="m61 422c-33.091 0-61 26.909-61 60v15c0 8.291 6.709 15 15 15h78.704l22.378-38.11-39.945-49.727c-4.916-1.29-9.955-2.163-15.137-2.163z" fill="#ffbfab"/><path d="m451 422c-5.182 0-10.221.873-15.137 2.162l-39.567 47.834 22 40.004h78.704c8.291 0 15-6.709 15-15v-15c0-33.091-27.909-60-61-60z" fill="#f89580"/><path d="m447.602 337.493c-2.857-3.472-7.105-5.493-11.602-5.493h-180-180c-4.497 0-8.745 2.021-11.602 5.493-2.842 3.472-3.984 8.042-3.105 12.451l14.844 74.218 17.567 87.838h162.296 162.296l17.567-87.838 14.844-74.218c.879-4.409-.264-8.979-3.105-12.451z" fill="#f0f7ff"/><path d="m435.863 424.162 14.844-74.218c.879-4.409-.264-8.979-3.105-12.451-2.857-3.472-7.105-5.493-11.602-5.493h-180v180h162.296z" fill="#dfe7f4"/><path d="m301 242-30 15h-15-15l-30-15h-30v15c0 41.353 33.647 75 75 75s75-33.647 75-75v-15z" fill="#f0f7ff"/><path d="m331 257v-15h-30l-30 15h-15v75c41.353 0 75-33.647 75-75z" fill="#dfe7f4"/><path d="m286 227v-15h-30-30v15c0 8.276-6.724 15-15 15v15c0 24.814 20.186 45 45 45s45-20.186 45-45v-15c-8.276 0-15-6.724-15-15z" fill="#ffbfab"/><path d="m301 257v-15c-8.276 0-15-6.724-15-15v-15h-30v90c24.814 0 45-20.186 45-45z" fill="#f89580"/><path d="m301 90h-45-75v76c0 41.353 33.647 76 75 76s75-34.647 75-76v-46z" fill="#ffe1ba"/><path d="m331 166v-46l-30-30h-45v152c41.353 0 75-34.647 75-76z" fill="#ffbfab"/><circle cx="256" cy="436.998" fill="#613d5c" r="15"/><path d="m271 436.998c0-8.284-6.716-15-15-15v30c8.284 0 15-6.716 15-15z" fill="#4b2746"/><path d="m286 30h-30-15c-8.276 0-15-6.724-15-15 0-8.291-6.709-15-15-15h-15c-36.414 0-65.341 32.584-59.165 70.133 4.854 29.502 32.622 49.867 62.519 49.867h56.646 75v-45c0-24.853-20.147-45-45-45z" fill="#fabe2c"/><path d="m331 75c0-24.853-20.147-45-45-45h-30v90h75z" fill="#ff9100"/></g></svg>